<svg version="1.1" id="Layer_1" xmlns="http://www.w3.org/2000/svg" xmlns:xlink="http://www.w3.org/1999/xlink" x="0px" y="0px"
	 width="100%" viewBox="0 0 500 500" enable-background="new 0 0 500 500" xml:space="preserve">
<path fill="#F2F2F2" opacity="1.000000" stroke="none" 
	d="
M501.000000,3.000000 
	C501.000000,168.024902 501.000000,333.049805 500.537354,498.538025 
	C333.716461,499.000885 167.358231,499.000458 1.000000,499.000000 
	C1.000000,333.975098 1.000000,168.950180 1.462638,3.462674 
	C168.283524,3.000047 334.641754,3.000023 501.000000,3.000000 
M238.998962,439.002014 
	C238.998962,439.002014 239.016861,439.004639 238.721756,438.399109 
	C238.635254,436.655701 237.938110,434.642181 238.568878,433.216003 
	C241.182861,427.305847 244.466949,421.687775 246.999756,415.747070 
	C250.354599,407.878235 251.433640,399.551056 247.801025,391.591003 
	C246.148727,387.970337 242.635559,385.198944 239.278488,381.907928 
	C236.454254,381.601166 233.632538,381.062653 230.805283,381.031799 
	C222.806808,380.944519 217.252045,385.201416 213.926590,392.607544 
	C208.067108,405.657196 210.640381,417.816895 216.907455,429.816345 
	C221.359848,438.341217 220.556656,435.768066 214.275345,441.122040 
	C213.525406,441.761292 212.593552,442.191162 211.733200,442.696259 
	C182.829498,459.665314 152.702530,460.635315 122.165855,448.335052 
	C110.127541,443.485962 101.043037,434.440063 96.736816,421.646667 
	C93.718513,412.679504 97.581711,403.696075 106.166580,401.731659 
	C110.886963,400.651520 116.327248,401.685974 121.244499,402.715210 
	C131.116333,404.781555 140.731445,408.756622 150.666718,409.708923 
	C179.748581,412.496368 200.547333,396.911102 211.811783,371.757172 
	C219.461121,354.675873 222.654022,336.602142 222.045914,317.861847 
	C221.869293,312.418610 222.018784,306.964752 222.018784,301.445312 
	C226.843430,300.532471 231.008377,299.744415 235.951187,298.809235 
	C235.951187,301.274445 235.950882,303.055298 235.951233,304.836151 
	C235.954254,320.502655 236.011917,336.169342 235.947906,351.835571 
	C235.848969,376.051819 254.114990,384.507568 272.799927,382.606354 
	C281.309235,381.740540 289.827209,379.638214 298.000763,377.029816 
	C328.272034,367.369324 349.372925,347.057434 362.731476,318.700714 
	C366.854614,309.948425 369.056732,300.291107 372.197906,290.869873 
	C378.884125,291.239685 384.047150,287.912384 383.705353,282.462677 
	C383.228607,274.862183 379.948425,269.071198 370.245148,267.989441 
	C368.825012,267.831146 366.984863,267.028809 366.262665,265.921875 
	C364.660858,263.466827 363.645599,260.629120 362.200684,257.540192 
	C367.178162,255.996948 372.038422,254.537201 376.868805,252.984482 
	C402.966858,244.595230 429.119080,236.366104 455.100342,227.628845 
	C460.499207,225.813278 465.673676,222.622375 470.197327,219.097397 
	C475.453522,215.001556 474.952942,210.343491 469.052368,207.244308 
	C461.274414,203.159058 453.392914,198.760147 445.018250,196.421127 
	C423.189880,190.324478 400.648346,188.712311 378.062042,187.929398 
	C374.830994,187.817398 371.615265,187.264389 369.218719,187.004929 
	C372.051880,172.242798 374.768005,158.090546 377.419556,144.274780 
	C382.871399,148.615280 384.545563,148.897247 389.136749,145.889847 
	C392.928894,143.405899 394.121246,138.657150 392.412811,132.842453 
	C390.648834,126.838600 386.487976,123.728134 379.128998,124.090889 
	C373.998444,124.343788 371.140381,122.897049 368.832306,117.990189 
	C359.619629,98.404373 339.554932,91.087982 320.195282,93.281799 
	C301.439453,95.407196 283.338257,100.779488 265.962036,107.830772 
	C240.852112,118.020401 216.193451,129.329544 191.411819,140.317963 
	C176.442581,146.955444 163.574432,156.551102 152.693237,168.812042 
	C143.313690,179.380905 136.763870,191.563919 134.405487,205.401352 
	C132.981674,213.755310 132.866669,221.732025 124.115746,226.625244 
	C119.908546,228.977798 120.338783,234.241852 121.498093,238.514359 
	C122.793983,243.290237 127.159821,244.183960 131.334717,244.913086 
	C133.317871,245.259430 135.821533,244.287918 136.040359,247.787918 
	C136.224396,250.731506 135.766266,252.587128 132.585648,253.922470 
	C124.713356,257.227631 119.330475,263.208038 116.137436,271.144165 
	C115.240738,273.372864 115.536011,274.637482 117.686104,276.486176 
	C122.280975,280.436951 127.086029,284.660095 130.157913,289.763153 
	C137.717422,302.321198 137.189026,316.105713 133.833298,329.866455 
	C133.596786,330.836334 131.482956,331.846527 130.162079,331.967957 
	C124.382591,332.499390 118.512184,332.288849 112.788010,333.123871 
	C100.525520,334.912720 89.805840,340.105743 82.102364,350.046051 
	C68.978561,366.980713 65.103966,386.534027 69.249527,407.096436 
	C75.067482,435.954102 91.734810,456.265411 120.177513,465.881836 
	C137.792709,471.837524 155.918457,473.238434 174.274292,470.819183 
	C187.871750,469.027100 201.045731,465.492462 212.745331,457.989044 
	C218.271988,454.444641 223.402802,450.283020 228.234085,446.751068 
	C233.937424,450.321869 239.074417,454.030975 244.636154,456.923279 
	C258.565582,464.167084 273.764252,465.148193 288.931244,463.794647 
	C307.946136,462.097778 324.523560,455.154297 334.329712,437.333649 
	C340.257629,426.560791 343.708496,415.307495 338.967072,402.261749 
	C336.659729,397.823212 334.352417,393.384705 331.912476,388.256805 
	C329.888611,387.435120 327.392639,385.447754 325.939911,386.036163 
	C322.980408,387.234894 323.969238,390.089600 325.328644,392.410126 
	C325.580078,392.839325 325.921570,393.216919 326.161682,393.651428 
	C336.937927,413.151276 328.183899,436.960419 307.520935,445.104858 
	C298.477966,448.669220 289.177704,449.137024 279.681091,449.140961 
	C274.050964,449.143311 268.421021,449.702209 262.458649,450.008057 
	C262.458649,450.008057 262.126465,450.018677 262.005615,449.261749 
	C261.636078,448.734955 261.380798,447.927307 260.879883,447.723480 
	C253.603882,444.763092 246.294968,441.883606 238.998962,439.002014 
M110.118690,120.158455 
	C114.639069,121.686081 119.159454,123.213715 123.541962,124.694756 
	C122.326881,136.484573 124.326965,141.368240 131.084885,142.705795 
	C133.216812,143.127762 136.419601,143.111465 137.691574,141.846756 
	C140.160339,139.392090 141.608475,135.910934 143.702072,132.491531 
	C143.881180,132.560608 144.784180,132.920731 145.695465,133.258453 
	C161.395844,139.077179 177.121201,142.077820 193.719803,136.291199 
	C211.783676,129.993744 225.078400,118.011574 235.976334,102.897354 
	C239.654755,97.795784 242.861298,92.353966 246.283493,87.067642 
	C245.896576,86.793808 245.509659,86.519981 245.122742,86.246147 
	C239.837738,88.975769 234.610764,91.825592 229.256134,94.410988 
	C216.593918,100.524734 203.854492,102.161369 190.341522,96.425095 
	C171.219925,88.307953 151.685287,81.587868 130.699158,79.625916 
	C113.312576,78.000488 97.136261,79.735443 82.160995,89.786041 
	C62.384724,103.058807 52.360313,129.729355 59.311745,152.924088 
	C60.944691,158.372726 63.315231,163.836182 68.328247,167.442657 
	C68.007248,164.904083 67.353676,162.545685 66.514397,160.255341 
	C63.085808,150.898987 65.190430,142.021637 69.804527,133.907791 
	C76.358536,122.382645 90.345383,114.624542 110.118690,120.158455 
M69.489731,169.581131 
	C69.489731,169.581131 69.421127,169.458939 69.489731,169.581131 
z"/>
<path fill="#FEFEFE" opacity="1.000000" stroke="none" 
	d="
M501.000000,2.499999 
	C334.641754,3.000023 168.283524,3.000047 1.462638,3.000035 
	C1.333333,2.333333 1.548027,1.216341 2.023962,1.090954 
	C3.114909,0.803541 4.333333,1.000000 5.500000,1.000000 
	C169.166672,1.000000 332.833344,0.997328 496.500000,1.041375 
	C498.000092,1.041779 499.500000,1.666665 501.000000,2.499999 
z"/>
<path fill="#FBFBFB" opacity="1.000000" stroke="none" 
	d="
M1.000001,499.500000 
	C167.358231,499.000458 333.716461,499.000885 500.537354,499.000671 
	C500.666656,499.666656 500.451965,500.783630 499.976013,500.909058 
	C498.885101,501.196472 497.666656,501.000000 496.500000,501.000000 
	C332.833344,501.000000 169.166687,501.002686 5.500041,500.958649 
	C3.999943,500.958221 2.500011,500.333313 1.000001,499.500000 
z"/>
<path fill="#D6AFEB" opacity="1.000000" stroke="none" 
	d="
M338.963745,403.023376 
	C343.708496,415.307495 340.257629,426.560791 334.329712,437.333649 
	C324.523560,455.154297 307.946136,462.097778 288.931244,463.794647 
	C273.764252,465.148193 258.565582,464.167084 244.636154,456.923279 
	C239.074417,454.030975 233.937424,450.321869 228.234085,446.751068 
	C223.402802,450.283020 218.271988,454.444641 212.745331,457.989044 
	C201.045731,465.492462 187.871750,469.027100 174.274292,470.819183 
	C155.918457,473.238434 137.792709,471.837524 120.177513,465.881836 
	C91.734810,456.265411 75.067482,435.954102 69.249527,407.096436 
	C65.103966,386.534027 68.978561,366.980713 82.102364,350.046051 
	C89.805840,340.105743 100.525520,334.912720 112.788010,333.123871 
	C118.512184,332.288849 124.382591,332.499390 130.162079,331.967957 
	C131.482956,331.846527 133.596786,330.836334 133.833298,329.866455 
	C137.189026,316.105713 137.717422,302.321198 130.157913,289.763153 
	C127.086029,284.660095 122.280975,280.436951 117.686104,276.486176 
	C115.536011,274.637482 115.240738,273.372864 116.137436,271.144165 
	C119.330475,263.208038 124.713356,257.227631 132.585648,253.922470 
	C135.766266,252.587128 136.224396,250.731506 136.040359,247.787918 
	C135.821533,244.287918 133.317871,245.259430 131.334717,244.913086 
	C127.159821,244.183960 122.793983,243.290237 121.498093,238.514359 
	C120.338783,234.241852 119.908546,228.977798 124.115746,226.625244 
	C132.866669,221.732025 132.981674,213.755310 134.405487,205.401352 
	C136.763870,191.563919 143.313690,179.380905 152.693237,168.812042 
	C163.574432,156.551102 176.442581,146.955444 191.411819,140.317963 
	C216.193451,129.329544 240.852112,118.020401 265.962036,107.830772 
	C283.338257,100.779488 301.439453,95.407196 320.195282,93.281799 
	C339.554932,91.087982 359.619629,98.404373 368.832306,117.990189 
	C371.140381,122.897049 373.998444,124.343788 379.128998,124.090889 
	C386.487976,123.728134 390.648834,126.838600 392.412811,132.842453 
	C394.121246,138.657150 392.928894,143.405899 389.136749,145.889847 
	C384.545563,148.897247 382.871399,148.615280 377.419556,144.274780 
	C374.768005,158.090546 372.051880,172.242798 369.218719,187.004929 
	C371.615265,187.264389 374.830994,187.817398 378.062042,187.929398 
	C400.648346,188.712311 423.189880,190.324478 445.018250,196.421127 
	C453.392914,198.760147 461.274414,203.159058 469.052368,207.244308 
	C474.952942,210.343491 475.453522,215.001556 470.197327,219.097397 
	C465.673676,222.622375 460.499207,225.813278 455.100342,227.628845 
	C429.119080,236.366104 402.966858,244.595230 376.868805,252.984482 
	C372.038422,254.537201 367.178162,255.996948 362.200684,257.540192 
	C363.645599,260.629120 364.660858,263.466827 366.262665,265.921875 
	C366.984863,267.028809 368.825012,267.831146 370.245148,267.989441 
	C379.948425,269.071198 383.228607,274.862183 383.705353,282.462677 
	C384.047150,287.912384 378.884125,291.239685 372.197906,290.869873 
	C369.056732,300.291107 366.854614,309.948425 362.731476,318.700714 
	C349.372925,347.057434 328.272034,367.369324 298.000763,377.029816 
	C289.827209,379.638214 281.309235,381.740540 272.799927,382.606354 
	C254.114990,384.507568 235.848969,376.051819 235.947906,351.835571 
	C236.011917,336.169342 235.954254,320.502655 235.951233,304.836151 
	C235.950882,303.055298 235.951187,301.274445 235.951187,298.809235 
	C231.008377,299.744415 226.843430,300.532471 222.018784,301.445312 
	C222.018784,306.964752 221.869293,312.418610 222.045914,317.861847 
	C222.654022,336.602142 219.461121,354.675873 211.811783,371.757172 
	C200.547333,396.911102 179.748581,412.496368 150.666718,409.708923 
	C140.731445,408.756622 131.116333,404.781555 121.244499,402.715210 
	C116.327248,401.685974 110.886963,400.651520 106.166580,401.731659 
	C97.581711,403.696075 93.718513,412.679504 96.736816,421.646667 
	C101.043037,434.440063 110.127541,443.485962 122.165855,448.335052 
	C152.702530,460.635315 182.829498,459.665314 211.733200,442.696259 
	C212.593552,442.191162 213.525406,441.761292 214.275345,441.122040 
	C220.556656,435.768066 221.359848,438.341217 216.907455,429.816345 
	C210.640381,417.816895 208.067108,405.657196 213.926590,392.607544 
	C217.252045,385.201416 222.806808,380.944519 230.805283,381.031799 
	C233.632538,381.062653 236.454254,381.601166 239.449127,382.211060 
	C239.066193,382.686218 238.512589,382.858276 237.513672,383.023560 
	C232.966949,383.921692 227.984726,383.659515 224.936447,385.959961 
	C217.146790,391.838593 214.947739,400.389191 216.490402,410.032928 
	C217.961868,419.231537 221.394928,427.551422 227.571579,435.962799 
	C222.676483,439.361389 218.201172,443.029327 213.232269,445.817657 
	C195.292938,455.884399 175.808838,458.922821 155.465546,458.079224 
	C136.845886,457.307098 119.688133,452.465363 105.163757,440.405853 
	C94.072090,431.196442 84.642052,411.581055 100.416260,396.935791 
	C101.217598,396.191772 101.049385,394.403473 101.332581,393.101379 
	C99.696968,393.110535 97.573898,392.459015 96.510536,393.243683 
	C92.021767,396.555725 89.184464,401.298615 89.152405,406.830261 
	C89.116180,413.082092 90.096588,419.345123 90.739845,425.592468 
	C90.943451,427.569855 91.484047,429.512573 91.920258,431.723816 
	C90.796043,431.542908 90.430428,431.576416 90.179153,431.422852 
	C89.760239,431.166809 89.324234,430.853119 89.051109,430.456482 
	C78.922104,415.746613 72.748505,399.617828 76.230476,381.719879 
	C80.995171,357.228546 103.548752,332.005280 136.903198,341.872406 
	C146.749878,344.785339 156.195709,349.041504 166.020645,352.042419 
	C179.558136,356.177307 192.982269,356.542175 204.731812,347.019165 
	C208.522781,343.946625 211.427338,339.780426 215.420059,335.358521 
	C209.868073,355.684265 202.261353,373.845428 186.281433,386.965027 
	C177.149780,394.462189 166.106552,398.737335 154.228012,396.591278 
	C143.877167,394.721222 133.872833,390.901031 123.747292,387.837128 
	C121.004730,387.007233 118.429024,386.128662 115.987976,388.946869 
	C116.627838,389.789307 116.973450,390.721008 117.610641,391.010223 
	C124.684364,394.220734 131.554596,398.211700 138.956940,400.303192 
	C160.435272,406.371857 179.971146,401.699493 194.963852,385.164368 
	C215.612839,362.390991 221.087387,334.259705 219.816986,304.406281 
	C219.784317,303.638611 218.524109,302.923157 217.836380,302.183350 
	C217.218246,303.003571 216.172470,303.767700 216.056244,304.653748 
	C215.560837,308.430359 215.220932,312.237335 215.040939,316.043488 
	C214.383423,329.946930 205.935562,342.094208 193.008301,346.365601 
	C181.390472,350.204285 169.903961,348.079742 158.977356,343.398560 
	C145.487778,337.619324 131.796799,334.086304 116.925529,335.896393 
	C107.347977,337.062103 98.668289,340.135040 91.795525,346.803131 
	C75.725555,362.394470 70.230835,381.716125 72.995483,403.636169 
	C76.422112,430.804749 97.434853,454.124512 123.879234,461.063812 
	C142.231613,465.879669 160.735779,466.125610 179.269730,463.746185 
	C191.455307,462.181763 203.483490,459.150452 214.088196,452.419983 
	C219.934464,448.709534 225.508987,444.570892 230.278046,441.267975 
	C238.845932,445.268646 246.915909,449.978119 255.592880,452.859985 
	C267.539246,456.827667 280.015015,456.563232 292.569061,455.143127 
	C318.389679,452.222382 340.656677,433.528961 338.049194,403.848328 
	C338.438049,403.426697 338.700897,403.225037 338.963745,403.023376 
M306.891235,348.757690 
	C306.815796,348.708649 306.740326,348.659607 306.664856,348.610565 
	C306.782959,348.735535 306.901062,348.860504 307.207458,349.441071 
	C307.391113,349.735687 307.651398,349.925049 308.079620,350.783569 
	C311.076324,354.880127 314.755676,352.465271 318.285858,351.645111 
	C314.859741,351.093475 311.433655,350.541840 307.784119,349.556305 
	C307.579193,349.286438 307.313171,349.107239 306.891235,348.757690 
M310.879608,331.792328 
	C310.879608,331.792328 310.598541,331.764801 310.598541,331.764801 
	C310.598541,331.764801 311.014557,331.989777 311.071472,332.584015 
	C311.384460,333.053680 311.697449,333.523346 312.053833,334.715454 
	C313.914307,341.493164 319.707733,341.048218 325.218353,341.122650 
	C325.048615,341.805542 324.878906,342.488403 324.709167,343.171295 
	C320.315460,342.548553 315.921753,341.925842 311.622833,341.316528 
	C311.632996,341.335907 311.780701,341.984344 312.185944,342.335876 
	C317.932495,347.320312 325.508728,345.562622 331.454468,337.793793 
	C331.737061,337.591461 331.913940,337.320190 332.427643,336.951630 
	C332.685242,336.853882 332.942810,336.756165 333.200409,336.658417 
	C333.125336,336.544464 333.050262,336.430542 332.975159,336.316620 
	C332.656677,336.549225 332.338196,336.781830 331.560608,337.204193 
	C331.261292,337.387573 331.072357,337.650330 330.144592,337.962799 
	C328.398987,338.256744 326.663300,338.692169 324.905731,338.815002 
	C321.319092,339.065674 317.713440,339.164795 316.822083,335.072754 
	C321.362671,335.142242 326.107666,336.093750 330.401642,335.098846 
	C339.538513,332.981964 344.365143,325.094696 345.794617,312.993896 
	C346.513947,312.288544 347.233307,311.583221 347.964294,310.061005 
	C348.326477,307.942719 348.426666,305.737091 349.098755,303.722168 
	C351.332458,297.025543 352.966431,289.929840 356.451355,283.928467 
	C358.366455,280.630493 363.373474,278.865021 367.301483,277.116150 
	C369.108612,276.311554 370.932861,277.394897 370.518311,280.496765 
	C370.263550,282.402954 371.225494,284.919678 372.516602,286.397156 
	C373.169617,287.144470 376.721069,286.792633 377.289551,285.887451 
	C378.548889,283.882080 379.763580,280.936493 379.197662,278.865997 
	C377.411713,272.331726 369.526581,269.689209 363.354706,273.179504 
	C360.416382,274.841187 357.670868,276.843933 354.715576,278.772064 
	C352.497833,267.355988 351.752014,266.277893 346.907227,265.605164 
	C343.926483,270.435669 341.188690,274.805267 338.526642,279.220581 
	C337.506989,280.911774 336.355560,282.617065 335.804840,284.476074 
	C334.934692,287.413422 333.789795,288.422943 330.474182,287.464661 
	C325.778046,286.107239 320.387421,290.106384 320.148499,294.938934 
	C320.085388,296.216125 321.552399,298.444458 322.722809,298.768219 
	C331.822998,301.285492 334.302368,305.428711 330.949829,314.281464 
	C330.121704,316.468109 327.792603,318.086334 326.153503,319.965851 
	C325.088562,318.112366 324.023621,316.258850 322.916656,314.332184 
	C321.620819,317.199249 321.252014,320.191711 323.997009,323.598358 
	C323.995270,323.800385 323.993561,324.002411 323.271240,324.065979 
	C321.772797,322.329773 320.274353,320.593567 318.932892,319.039307 
	C318.298859,326.807861 319.961853,327.745850 331.087433,326.763000 
	C330.322754,327.605194 329.927551,328.353424 329.310638,328.671356 
	C323.374695,331.730255 319.873077,330.309967 314.970428,322.475220 
	C314.798889,322.230408 314.627319,321.985626 314.455780,321.740814 
	C314.312653,322.175354 314.169556,322.609924 314.108521,323.720306 
	C314.395538,324.810730 314.682556,325.901184 314.328278,326.995819 
	C313.900970,326.991272 313.473633,326.986694 312.773895,326.397827 
	C312.352264,325.582794 311.930603,324.767731 311.288666,323.526794 
	C310.307373,328.804626 313.495850,331.762299 315.306427,335.069122 
	C314.200836,334.716370 313.095276,334.363617 311.936249,333.425079 
	C311.620850,332.954956 311.305450,332.484863 310.879608,331.792328 
M286.996521,369.997986 
	C286.996521,369.997986 286.961090,369.960571 287.256348,369.362061 
	C291.546936,362.912537 296.827301,356.904694 299.940125,349.929565 
	C308.815765,330.041260 309.492706,308.721100 308.877472,287.354401 
	C308.792755,284.411652 308.022034,281.446777 307.221130,278.589630 
	C306.947235,277.612610 305.607635,276.934357 304.754974,276.119568 
	C304.220917,277.311707 303.214935,278.513428 303.238922,279.694244 
	C303.319397,283.660095 304.241119,287.649139 303.987488,291.574188 
	C303.143463,304.638245 302.414032,317.742584 300.700623,330.707214 
	C299.332947,341.055603 296.853912,351.263092 290.136169,359.889832 
	C284.980408,366.510681 270.380615,372.179626 262.351379,370.236511 
	C254.090912,368.237396 248.043640,360.506927 247.991592,351.471527 
	C247.894684,334.649872 248.020737,317.826630 247.841400,301.006317 
	C247.823532,299.330902 246.577377,296.445221 245.491028,296.234314 
	C242.250549,295.605133 242.032425,298.312408 242.036072,300.822723 
	C242.059586,316.978607 241.709305,333.144440 242.175323,349.286957 
	C242.464844,359.315216 245.886002,368.262878 255.633484,373.249054 
	C265.097748,378.090393 275.220764,376.417358 285.015045,375.319244 
	C299.600372,373.683990 311.995422,366.527252 323.801300,358.137268 
	C342.091522,345.139069 356.420197,329.218292 361.777252,306.834198 
	C363.538147,299.476501 364.019684,291.800415 364.829712,284.242462 
	C364.933838,283.270813 363.486969,282.132965 362.758575,281.072144 
	C361.867554,282.087219 360.585724,282.970917 360.188629,284.152039 
	C359.735016,285.501251 360.210236,287.131836 360.035858,288.611145 
	C359.281921,295.006409 359.376892,301.689331 357.459351,307.726410 
	C350.332123,330.164978 335.393982,346.638153 315.280487,358.127441 
	C306.470001,363.160248 296.481750,366.131287 286.996521,369.997986 
M295.000000,239.999954 
	C295.000000,239.999954 295.005737,240.004425 295.256348,239.369476 
	C299.729797,231.806168 304.785675,224.522095 308.569885,216.628372 
	C321.028442,190.640289 323.598877,163.354843 316.742462,135.481247 
	C313.599579,122.704338 306.882660,112.212135 291.720337,110.025833 
	C301.154297,106.949738 310.492645,104.142303 320.015442,102.276054 
	C338.054871,98.740746 356.622253,108.693001 363.974213,125.204903 
	C364.570831,126.544830 365.651001,127.669449 366.506470,128.894104 
	C367.050415,128.680939 367.594330,128.467773 368.138275,128.254593 
	C367.644196,126.013878 367.585785,123.554024 366.586578,121.567368 
	C359.106873,106.695770 346.962067,97.962013 330.375916,97.148026 
	C312.639648,96.277603 295.991119,102.358315 279.477905,107.896400 
	C245.934464,119.145958 214.119858,134.414429 182.765350,150.658066 
	C160.203903,162.346329 145.322449,180.137558 140.495453,205.456207 
	C139.675156,209.758835 140.379578,214.352158 140.379578,218.811172 
	C141.068481,218.896881 141.757385,218.982590 142.446289,219.068298 
	C143.938675,211.934570 144.623978,204.499329 147.145493,197.750107 
	C149.782059,190.692932 153.485168,183.769455 158.009094,177.755737 
	C162.647385,171.590012 168.491409,166.172409 174.459808,161.211929 
	C180.158600,156.475555 186.697067,152.749512 192.866409,148.579330 
	C193.179016,149.001541 193.491608,149.423752 193.804214,149.845963 
	C192.157135,153.239624 190.110718,156.500320 188.929016,160.048965 
	C182.196289,180.267563 184.894211,200.719818 187.525635,221.213104 
	C189.613846,237.475861 191.308701,253.793549 192.867508,270.116516 
	C193.216476,273.770752 192.268631,277.548828 191.881348,281.656616 
	C196.712128,281.109161 196.812698,278.158539 196.990952,275.073975 
	C198.316360,252.140564 192.767639,229.862579 190.457520,207.281693 
	C189.042892,193.454086 188.700714,179.789337 192.448853,166.338272 
	C194.757385,158.053589 197.950104,150.071365 204.633530,143.564423 
	C207.036560,146.151703 208.951065,148.671127 211.316116,150.652863 
	C214.939209,153.688705 216.095047,157.214828 216.067764,161.972992 
	C215.863297,197.637268 215.956421,233.303238 215.959763,268.968689 
	C215.959885,270.301575 215.783417,271.686310 216.093369,272.947571 
	C216.274429,273.684357 217.256775,274.715302 217.881454,274.717255 
	C218.537857,274.719330 219.610748,273.742950 219.768997,273.031250 
	C220.087830,271.597412 219.932846,270.053040 219.933014,268.554291 
	C219.936905,234.722107 219.922897,200.889923 219.964066,167.057785 
	C219.966675,164.922501 220.054581,162.684113 220.674637,160.669708 
	C224.427292,148.478058 231.899445,138.937805 242.027786,131.354065 
	C254.315292,122.153603 268.391876,117.582626 283.305511,114.800209 
	C290.693146,113.421898 297.096344,114.707916 303.083038,119.013550 
	C309.281036,123.471191 312.349182,130.031113 313.893372,137.032166 
	C317.575012,153.724106 317.389313,170.642395 314.607666,187.432480 
	C312.040619,202.927521 306.398041,217.326370 295.974457,229.322784 
	C284.416779,242.624435 268.942230,248.048843 251.925385,250.000671 
	C247.754745,250.479034 247.915588,247.872513 247.920090,245.011673 
	C247.960175,219.512604 247.949448,194.013443 247.930084,168.514328 
	C247.928802,166.808289 247.735229,165.102402 247.624298,163.285431 
	C242.734497,164.161499 241.992142,166.967270 242.002960,170.732605 
	C242.091049,201.397980 242.052536,232.063721 242.052567,262.729340 
	C242.052567,264.314240 242.052536,265.899170 242.052536,267.764954 
	C245.823105,267.543243 247.690094,266.644165 248.105606,263.144928 
	C248.281876,261.660431 250.009338,259.527863 251.410995,259.168365 
	C256.839172,257.776245 262.383698,256.598175 267.954132,256.067474 
	C273.567993,255.532639 279.264557,255.883148 284.923309,255.768875 
	C285.375061,255.759750 285.814728,255.152237 286.632874,254.546951 
	C284.973358,254.099396 283.855713,253.797974 282.269012,253.370071 
	C296.711029,244.348862 312.526917,243.971848 328.301178,243.418121 
	C328.261566,242.812057 328.221924,242.205994 328.182312,241.599930 
	C321.458893,240.941895 314.735474,240.283875 307.125214,239.539047 
	C321.924316,231.314499 334.581635,221.763779 345.569275,209.995758 
	C362.410126,191.958725 371.175964,170.664780 371.858307,146.055237 
	C371.929810,143.476166 371.060944,140.871017 370.628387,138.277954 
	C370.029236,138.307480 369.430115,138.337006 368.830963,138.366531 
	C368.546967,140.173813 367.941681,141.996948 368.030029,143.785828 
	C368.707001,157.492828 364.827759,170.145401 358.851135,182.179916 
	C348.682068,202.656097 333.363068,218.621262 314.160248,230.757599 
	C308.204834,234.521484 301.406952,236.952362 295.000000,239.999954 
M222.018677,227.500000 
	C222.018677,242.557709 222.018677,257.615417 222.018677,273.217529 
	C224.927734,272.642975 226.857254,272.336639 228.748871,271.874969 
	C235.956696,270.115784 235.952881,270.097076 235.952972,262.761139 
	C235.953369,231.614395 235.943573,200.467651 235.981140,169.320953 
	C235.983078,167.705994 235.791611,165.320114 236.708832,164.611298 
	C240.531555,161.657104 244.744293,159.207596 250.067230,155.761703 
	C250.067230,187.161652 250.067230,216.854904 250.067230,247.379105 
	C254.423019,246.450562 257.956238,245.795364 261.439850,244.938492 
	C280.638000,240.216263 295.181732,229.467697 303.341858,211.225952 
	C313.998810,187.402664 315.889069,162.458466 310.398987,137.159210 
	C307.267212,122.727570 296.215179,114.636368 283.760498,117.210136 
	C269.053955,120.249237 255.000168,125.284157 242.798355,134.602798 
	C228.748871,145.332458 221.504089,159.096680 221.934616,177.033661 
	C222.330185,193.513626 222.018707,210.010544 222.018677,227.500000 
M250.034790,324.500000 
	C250.036591,332.487335 249.911774,340.477234 250.072540,348.461365 
	C250.269562,358.246765 255.564621,366.678467 262.833557,367.690308 
	C272.648834,369.056580 281.222656,365.875153 287.815216,358.299622 
	C294.051910,351.132965 296.322113,342.169128 297.886963,333.180267 
	C299.672607,322.923187 301.034668,312.550232 301.791870,302.170044 
	C302.363983,294.327026 301.696228,286.393524 301.574707,278.121704 
	C299.713531,278.465942 299.058838,278.509216 298.456512,278.709717 
	C283.370300,283.732269 268.258362,288.682434 253.258301,293.950836 
	C251.824066,294.454620 250.240021,296.930359 250.179840,298.544861 
	C249.870071,306.853485 250.035416,315.179840 250.034790,324.500000 
M193.029663,187.548279 
	C194.425964,202.717545 195.814194,217.887558 197.220810,233.055862 
	C198.622162,248.167435 200.041962,263.277313 201.470688,278.570160 
	C208.022827,279.664276 210.015182,278.137238 210.015991,271.318451 
	C210.020187,236.202469 209.846649,201.084839 210.178574,165.972000 
	C210.238098,159.676880 207.588470,156.162643 202.446762,152.881149 
	C196.080612,163.431442 193.458817,174.691803 193.029663,187.548279 
M348.905701,214.395996 
	C339.362823,221.606628 329.819946,228.817261 320.503906,235.856491 
	C321.930634,236.084961 323.747559,236.273926 325.516052,236.676041 
	C335.399567,238.923370 345.145447,239.664566 354.447083,234.419815 
	C355.001831,234.107010 355.757935,234.175079 356.370056,233.936737 
	C368.128448,229.358444 379.904266,224.822479 391.597412,220.082626 
	C392.935364,219.540283 393.801880,217.835052 394.886963,216.668991 
	C393.640289,215.747879 392.498688,214.245987 391.130157,213.998383 
	C381.045929,212.173889 370.832214,210.984482 360.834137,208.796158 
	C355.234924,207.570618 352.037323,209.538712 348.905701,214.395996 
M160.590576,340.027374 
	C165.341843,341.413422 170.010132,343.303741 174.858200,344.101379 
	C200.961914,348.396362 212.470871,327.035553 209.091446,304.014648 
	C201.674316,304.557800 194.584335,303.822266 190.544769,313.190613 
	C186.235565,323.184296 177.478119,329.784851 167.440277,334.192047 
	C164.205505,335.612274 160.768021,336.570862 156.759521,337.972778 
	C158.245834,338.855103 159.063293,339.340393 160.590576,340.027374 
M135.620636,281.961212 
	C136.763351,284.162140 137.892685,286.370178 139.052933,288.561829 
	C140.016006,290.381073 139.663712,293.978058 143.180603,292.451599 
	C143.938995,292.122406 144.237076,288.490631 143.434128,287.191956 
	C139.835571,281.371582 135.722580,275.871490 131.895676,270.188171 
	C131.152359,269.084259 130.197372,266.742096 130.457748,266.558807 
	C132.810135,264.902771 135.376770,262.640747 137.952682,262.547455 
	C139.546524,262.489746 141.728577,265.660980 142.776932,267.807434 
	C143.568542,269.428192 142.823990,271.741089 143.062271,273.709686 
	C143.234146,275.129547 143.897888,276.489838 144.497406,278.361023 
	C149.514084,272.160858 148.756287,242.989624 143.792801,237.074280 
	C140.536377,239.638412 140.905731,243.007172 141.316635,246.484650 
	C141.711273,249.824432 141.865677,253.192612 142.133072,256.644196 
	C134.572189,257.359528 129.197723,260.309448 125.016876,265.478455 
	C123.036453,267.927032 122.690010,269.696930 125.704918,271.993286 
	C129.216400,274.667847 132.077332,278.196503 135.620636,281.961212 
M160.780579,331.530212 
	C172.925232,326.698517 182.264282,318.864563 187.348541,306.244934 
	C185.129578,306.508331 183.091614,307.197113 181.752945,308.568481 
	C178.282379,312.123810 175.412430,316.297546 171.772751,319.648926 
	C164.370819,326.464630 155.389420,329.040741 144.986389,328.734222 
	C145.167007,326.823853 145.297150,325.539337 145.408539,324.253204 
	C145.936844,318.154144 146.432587,312.052124 146.996124,305.956360 
	C147.296967,302.702240 145.788818,301.400879 142.067657,301.638977 
	C142.067657,303.448425 142.219940,305.241150 142.040680,307.000031 
	C141.353821,313.739197 140.825165,320.511200 139.723541,327.186127 
	C138.834290,332.574188 139.285583,333.979431 144.826920,333.837036 
	C149.909668,333.706421 154.965378,332.523895 160.780579,331.530212 
M251.072586,264.806915 
	C258.991058,262.855469 266.909515,260.903992 274.828003,258.952545 
	C274.691772,258.341339 274.555542,257.730103 274.419281,257.118866 
	C267.504608,258.396545 260.560150,259.540955 253.702240,261.072876 
	C252.445343,261.353638 251.540314,263.209534 251.072586,264.806915 
M356.513519,265.975098 
	C356.951538,266.860016 357.212341,267.922058 357.873688,268.583771 
	C358.653168,269.363708 359.779419,269.796967 360.755341,270.380524 
	C360.813385,269.214294 361.218445,267.924194 360.855835,266.908051 
	C360.142365,264.908752 359.256561,262.858948 357.950806,261.221893 
	C357.065979,260.112549 355.343201,259.671570 353.995178,258.931671 
	C353.800629,259.344543 353.606049,259.757416 353.411499,260.170288 
	C354.331909,261.891571 355.252319,263.612885 356.513519,265.975098 
M310.774506,347.127533 
	C315.043152,349.735718 319.207703,349.987305 323.200928,347.233734 
	C318.520233,346.567352 313.938324,345.915039 309.405273,345.269684 
	C309.585602,345.559418 309.921448,346.099121 310.774506,347.127533 
M305.705688,357.252808 
	C308.162079,357.379639 310.618439,357.506500 313.074829,357.633331 
	C313.040070,357.258850 313.005310,356.884369 312.970551,356.509888 
	C309.849060,355.889893 306.727600,355.269867 302.908966,354.511383 
	C303.884979,355.627930 304.458282,356.283783 305.705688,357.252808 
M315.419403,355.490784 
	C315.419403,355.490784 315.513458,355.441010 315.419403,355.490784 
M302.488617,352.562469 
	C302.488617,352.562469 302.454834,352.492340 302.488617,352.562469 
M320.400116,350.484314 
	C320.400116,350.484314 320.516357,350.417480 320.400116,350.484314 
M305.458160,346.497833 
	C305.458160,346.497833 305.517303,346.469269 305.458160,346.497833 
M310.431732,338.495972 
	C310.431732,338.495972 310.518768,338.446655 310.431732,338.495972 
z"/>
<path fill="#F0EDF1" opacity="1.000000" stroke="none" 
	d="
M337.923218,404.068298 
	C340.656677,433.528961 318.389679,452.222382 292.569061,455.143127 
	C280.015015,456.563232 267.539246,456.827667 255.592880,452.859985 
	C246.915909,449.978119 238.845932,445.268646 230.278046,441.267975 
	C225.508987,444.570892 219.934464,448.709534 214.088196,452.419983 
	C203.483490,459.150452 191.455307,462.181763 179.269730,463.746185 
	C160.735779,466.125610 142.231613,465.879669 123.879234,461.063812 
	C97.434853,454.124512 76.422112,430.804749 72.995483,403.636169 
	C70.230835,381.716125 75.725555,362.394470 91.795525,346.803131 
	C98.668289,340.135040 107.347977,337.062103 116.925529,335.896393 
	C131.796799,334.086304 145.487778,337.619324 158.977356,343.398560 
	C169.903961,348.079742 181.390472,350.204285 193.008301,346.365601 
	C205.935562,342.094208 214.383423,329.946930 215.040939,316.043488 
	C215.220932,312.237335 215.560837,308.430359 216.056244,304.653748 
	C216.172470,303.767700 217.218246,303.003571 217.836380,302.183350 
	C218.524109,302.923157 219.784317,303.638611 219.816986,304.406281 
	C221.087387,334.259705 215.612839,362.390991 194.963852,385.164368 
	C179.971146,401.699493 160.435272,406.371857 138.956940,400.303192 
	C131.554596,398.211700 124.684364,394.220734 117.610641,391.010223 
	C116.973450,390.721008 116.627838,389.789307 115.987976,388.946869 
	C118.429024,386.128662 121.004730,387.007233 123.747292,387.837128 
	C133.872833,390.901031 143.877167,394.721222 154.228012,396.591278 
	C166.106552,398.737335 177.149780,394.462189 186.281433,386.965027 
	C202.261353,373.845428 209.868073,355.684265 215.420059,335.358521 
	C211.427338,339.780426 208.522781,343.946625 204.731812,347.019165 
	C192.982269,356.542175 179.558136,356.177307 166.020645,352.042419 
	C156.195709,349.041504 146.749878,344.785339 136.903198,341.872406 
	C103.548752,332.005280 80.995171,357.228546 76.230476,381.719879 
	C72.748505,399.617828 78.922104,415.746613 89.051109,430.456482 
	C89.324234,430.853119 89.760239,431.166809 90.179153,431.422852 
	C90.430428,431.576416 90.796043,431.542908 91.920258,431.723816 
	C91.484047,429.512573 90.943451,427.569855 90.739845,425.592468 
	C90.096588,419.345123 89.116180,413.082092 89.152405,406.830261 
	C89.184464,401.298615 92.021767,396.555725 96.510536,393.243683 
	C97.573898,392.459015 99.696968,393.110535 101.332581,393.101379 
	C101.049385,394.403473 101.217598,396.191772 100.416260,396.935791 
	C84.642052,411.581055 94.072090,431.196442 105.163757,440.405853 
	C119.688133,452.465363 136.845886,457.307098 155.465546,458.079224 
	C175.808838,458.922821 195.292938,455.884399 213.232269,445.817657 
	C218.201172,443.029327 222.676483,439.361389 227.571579,435.962799 
	C221.394928,427.551422 217.961868,419.231537 216.490402,410.032928 
	C214.947739,400.389191 217.146790,391.838593 224.936447,385.959961 
	C227.984726,383.659515 232.966949,383.921692 237.725067,383.281097 
	C246.081863,389.172638 248.653275,396.726532 247.232483,406.033295 
	C245.524979,417.218109 240.842651,427.056213 233.526703,436.828308 
	C235.682083,437.682709 237.349472,438.343658 239.016861,439.004639 
	C239.016861,439.004639 238.998962,439.002014 239.021210,439.345398 
	C245.244873,446.468170 253.691895,448.229492 262.126465,450.018677 
	C262.126465,450.018677 262.458649,450.008057 263.028137,450.143097 
	C279.609436,453.592163 295.203827,452.187866 310.425079,446.233704 
	C328.822083,439.037323 342.786499,411.313599 328.981445,392.454346 
	C328.785583,392.186798 328.533264,391.923676 328.446289,391.618835 
	C327.475769,388.216583 329.338043,389.237457 331.171021,390.294067 
	C333.523132,395.091125 335.723175,399.579712 337.923218,404.068298 
M227.145935,427.294312 
	C228.123932,428.582550 229.101929,429.870789 230.642990,431.900665 
	C232.714935,429.564697 234.739273,427.853333 236.047623,425.705780 
	C240.992950,417.588379 243.905304,408.900726 243.109497,399.170380 
	C242.683990,393.967896 239.239319,389.072906 234.711487,388.102875 
	C229.890854,387.070129 224.932495,389.771576 222.622879,394.864960 
	C221.876312,396.511414 221.337067,398.301971 221.016434,400.083038 
	C219.282227,409.716278 222.351044,418.334564 227.145935,427.294312 
M92.609978,433.507385 
	C92.609978,433.507385 92.452415,433.409698 92.452415,433.409698 
	C92.452415,433.409698 92.469597,433.600739 92.609978,433.507385 
z"/>
<path fill="#D6B0EB" opacity="1.000000" stroke="none" 
	d="
M109.712868,120.079811 
	C90.345383,114.624542 76.358536,122.382645 69.804527,133.907791 
	C65.190430,142.021637 63.085808,150.898987 66.514397,160.255341 
	C67.353676,162.545685 68.007248,164.904083 68.328247,167.442657 
	C63.315231,163.836182 60.944691,158.372726 59.311745,152.924088 
	C52.360313,129.729355 62.384724,103.058807 82.160995,89.786041 
	C97.136261,79.735443 113.312576,78.000488 130.699158,79.625916 
	C151.685287,81.587868 171.219925,88.307953 190.341522,96.425095 
	C203.854492,102.161369 216.593918,100.524734 229.256134,94.410988 
	C234.610764,91.825592 239.837738,88.975769 245.122742,86.246147 
	C245.509659,86.519981 245.896576,86.793808 246.283493,87.067642 
	C242.861298,92.353966 239.654755,97.795784 235.976334,102.897354 
	C225.078400,118.011574 211.783676,129.993744 193.719803,136.291199 
	C177.121201,142.077820 161.395844,139.077179 145.695465,133.258453 
	C144.784180,132.920731 143.881180,132.560608 143.702072,132.491531 
	C141.608475,135.910934 140.160339,139.392090 137.691574,141.846756 
	C136.419601,143.111465 133.216812,143.127762 131.084885,142.705795 
	C124.326965,141.368240 122.326881,136.484573 123.541962,124.694756 
	C119.159454,123.213715 114.639069,121.686081 109.712868,120.079811 
M195.925232,112.914352 
	C195.588715,115.270630 195.252213,117.626915 194.479843,120.298409 
	C194.118240,120.562798 193.756653,120.827187 193.395065,121.091576 
	C193.241135,120.366264 193.087204,119.640961 192.968872,118.107559 
	C192.717606,116.414207 192.466339,114.720863 192.087326,112.166504 
	C190.712677,115.271614 189.875992,117.161545 188.987289,118.988251 
	C188.987289,118.988251 188.932190,118.927689 188.924652,118.135551 
	C189.245468,115.046005 188.570160,112.664047 184.633270,112.065430 
	C185.490982,113.799309 186.163574,115.158958 186.966125,116.781311 
	C181.557693,119.335144 177.173660,117.891319 173.262543,114.700966 
	C169.696716,111.792290 169.121918,108.165138 171.406540,104.007866 
	C173.007507,101.094620 171.316589,99.690605 168.566055,99.143791 
	C163.783829,98.193092 160.667404,100.734451 158.353897,107.201752 
	C150.709274,106.556519 143.182877,105.921272 135.012268,105.231644 
	C131.042908,111.206291 137.507080,114.229607 140.690506,118.261360 
	C137.440674,119.681091 134.374710,120.639984 131.711426,122.260620 
	C125.546989,126.011795 125.025703,134.644409 130.742081,138.022141 
	C132.075684,138.810150 134.412140,138.922089 135.796143,138.282516 
	C136.914978,137.765488 137.933960,135.591980 137.811737,134.262238 
	C137.704117,133.091141 136.130615,131.446640 134.897903,131.099365 
	C130.959122,129.989777 132.163330,127.806908 133.764725,125.988281 
	C134.712738,124.911674 136.562973,124.629524 138.016190,124.771416 
	C138.861893,125.964592 139.453903,127.772545 140.597275,128.244354 
	C145.508911,130.271133 150.469498,132.415695 155.624802,133.558105 
	C162.708084,135.127762 170.076706,137.149567 177.158737,136.649643 
	C196.221848,135.303970 212.001816,126.322571 224.876755,112.437317 
	C229.482437,107.470207 233.239151,101.715889 237.383362,96.320885 
	C236.955231,95.890030 236.527100,95.459183 236.098969,95.028336 
	C234.375732,95.871895 232.674103,96.763435 230.925781,97.551361 
	C218.066452,103.346741 205.066742,105.464157 191.335449,100.231773 
	C179.241348,95.623260 167.054672,91.140526 154.642715,87.512901 
	C139.130264,82.979111 123.282135,80.105064 106.979637,83.041634 
	C83.266388,87.313103 63.571754,108.210236 61.165756,132.103638 
	C60.644516,137.279953 61.299377,142.574707 61.412533,147.814911 
	C61.836613,147.791245 62.260693,147.767563 62.684772,147.743896 
	C65.541206,125.123909 84.025368,111.780029 106.182678,116.632019 
	C112.640289,118.046089 118.894951,120.373543 125.279022,122.151672 
	C126.207016,122.410133 127.339218,121.935455 128.376923,121.800018 
	C127.902428,120.917198 127.623375,119.480278 126.924446,119.233749 
	C114.212349,114.749863 101.361954,110.739540 87.624146,113.320755 
	C77.481468,115.226486 70.542953,121.727043 65.000000,130.000000 
	C65.000000,130.000000 65.001839,130.001312 64.974022,129.196335 
	C68.101982,111.944496 83.064102,92.136642 102.277832,87.691460 
	C118.104523,84.029900 133.770264,85.654373 149.033646,89.729485 
	C163.908707,93.700920 178.354065,99.281868 192.978668,104.800499 
	C191.862442,105.657608 190.746231,106.514717 189.343292,107.592010 
	C190.502838,108.052231 191.665283,108.513603 193.167252,109.552925 
	C194.083145,110.397049 194.999039,111.241180 195.925232,112.914352 
z"/>
<path fill="#D8B4EB" opacity="1.000000" stroke="none" 
	d="
M331.018921,389.985626 
	C329.338043,389.237457 327.475769,388.216583 328.446289,391.618835 
	C328.533264,391.923676 328.785583,392.186798 328.981445,392.454346 
	C342.786499,411.313599 328.822083,439.037323 310.425079,446.233704 
	C295.203827,452.187866 279.609436,453.592163 263.194336,450.144501 
	C268.421021,449.702209 274.050964,449.143311 279.681091,449.140961 
	C289.177704,449.137024 298.477966,448.669220 307.520935,445.104858 
	C328.183899,436.960419 336.937927,413.151276 326.161682,393.651428 
	C325.921570,393.216919 325.580078,392.839325 325.328644,392.410126 
	C323.969238,390.089600 322.980408,387.234894 325.939911,386.036163 
	C327.392639,385.447754 329.888611,387.435120 331.859406,388.822693 
	C331.605316,389.668640 331.342834,389.867645 331.018921,389.985626 
z"/>
<path fill="#DCBDEC" opacity="1.000000" stroke="none" 
	d="
M238.869308,438.701874 
	C237.349472,438.343658 235.682083,437.682709 233.526703,436.828308 
	C240.842651,427.056213 245.524979,417.218109 247.232483,406.033295 
	C248.653275,396.726532 246.081863,389.172638 238.170395,383.287903 
	C238.512589,382.858276 239.066193,382.686218 239.793152,382.278229 
	C242.635559,385.198944 246.148727,387.970337 247.801025,391.591003 
	C251.433640,399.551056 250.354599,407.878235 246.999756,415.747070 
	C244.466949,421.687775 241.182861,427.305847 238.568878,433.216003 
	C237.938110,434.642181 238.635254,436.655701 238.869308,438.701874 
z"/>
<path fill="#DCBDEC" opacity="1.000000" stroke="none" 
	d="
M262.066040,449.640198 
	C253.691895,448.229492 245.244873,446.468170 239.018707,439.336761 
	C246.294968,441.883606 253.603882,444.763092 260.879883,447.723480 
	C261.380798,447.927307 261.636078,448.734955 262.066040,449.640198 
z"/>
<path fill="#DCBDEC" opacity="1.000000" stroke="none" 
	d="
M331.171021,390.294067 
	C331.342834,389.867645 331.605316,389.668640 331.925720,389.167389 
	C334.352417,393.384705 336.659729,397.823212 338.965393,402.642548 
	C338.700897,403.225037 338.438049,403.426697 338.049194,403.848328 
	C335.723175,399.579712 333.523132,395.091125 331.171021,390.294067 
z"/>
<path fill="#D6B0EB" opacity="1.000000" stroke="none" 
	d="
M69.455429,169.520035 
	C69.421127,169.458939 69.489731,169.581131 69.455429,169.520035 
z"/>
<path fill="#F2F1F2" opacity="1.000000" stroke="none" 
	d="
M222.018707,227.000000 
	C222.018707,210.010544 222.330185,193.513626 221.934616,177.033661 
	C221.504089,159.096680 228.748871,145.332458 242.798355,134.602798 
	C255.000168,125.284157 269.053955,120.249237 283.760498,117.210136 
	C296.215179,114.636368 307.267212,122.727570 310.398987,137.159210 
	C315.889069,162.458466 313.998810,187.402664 303.341858,211.225952 
	C295.181732,229.467697 280.638000,240.216263 261.439850,244.938492 
	C257.956238,245.795364 254.423019,246.450562 250.067230,247.379105 
	C250.067230,216.854904 250.067230,187.161652 250.067230,155.761703 
	C244.744293,159.207596 240.531555,161.657104 236.708832,164.611298 
	C235.791611,165.320114 235.983078,167.705994 235.981140,169.320953 
	C235.943573,200.467651 235.953369,231.614395 235.952972,262.761139 
	C235.952881,270.097076 235.956696,270.115784 228.748871,271.874969 
	C226.857254,272.336639 224.927734,272.642975 222.018677,273.217529 
	C222.018677,257.615417 222.018677,242.557709 222.018707,227.000000 
z"/>
<path fill="#F0EDF1" opacity="1.000000" stroke="none" 
	d="
M294.994781,239.993530 
	C301.406952,236.952362 308.204834,234.521484 314.160248,230.757599 
	C333.363068,218.621262 348.682068,202.656097 358.851135,182.179916 
	C364.827759,170.145401 368.707001,157.492828 368.030029,143.785828 
	C367.941681,141.996948 368.546967,140.173813 368.830963,138.366531 
	C369.430115,138.337006 370.029236,138.307480 370.628387,138.277954 
	C371.060944,140.871017 371.929810,143.476166 371.858307,146.055237 
	C371.175964,170.664780 362.410126,191.958725 345.569275,209.995758 
	C334.581635,221.763779 321.924316,231.314499 307.125214,239.539047 
	C314.735474,240.283875 321.458893,240.941895 328.182312,241.599930 
	C328.221924,242.205994 328.261566,242.812057 328.301178,243.418121 
	C312.526917,243.971848 296.711029,244.348862 282.269012,253.370071 
	C283.855713,253.797974 284.973358,254.099396 286.632874,254.546951 
	C285.814728,255.152237 285.375061,255.759750 284.923309,255.768875 
	C279.264557,255.883148 273.567993,255.532639 267.954132,256.067474 
	C262.383698,256.598175 256.839172,257.776245 251.410995,259.168365 
	C250.009338,259.527863 248.281876,261.660431 248.105606,263.144928 
	C247.690094,266.644165 245.823105,267.543243 242.052536,267.764954 
	C242.052536,265.899170 242.052567,264.314240 242.052567,262.729340 
	C242.052536,232.063721 242.091049,201.397980 242.002960,170.732605 
	C241.992142,166.967270 242.734497,164.161499 247.624298,163.285431 
	C247.735229,165.102402 247.928802,166.808289 247.930084,168.514328 
	C247.949448,194.013443 247.960175,219.512604 247.920090,245.011673 
	C247.915588,247.872513 247.754745,250.479034 251.925385,250.000671 
	C268.942230,248.048843 284.416779,242.624435 295.974457,229.322784 
	C306.398041,217.326370 312.040619,202.927521 314.607666,187.432480 
	C317.389313,170.642395 317.575012,153.724106 313.893372,137.032166 
	C312.349182,130.031113 309.281036,123.471191 303.083038,119.013550 
	C297.096344,114.707916 290.693146,113.421898 283.305511,114.800209 
	C268.391876,117.582626 254.315292,122.153603 242.027786,131.354065 
	C231.899445,138.937805 224.427292,148.478058 220.674637,160.669708 
	C220.054581,162.684113 219.966675,164.922501 219.964066,167.057785 
	C219.922897,200.889923 219.936905,234.722107 219.933014,268.554291 
	C219.932846,270.053040 220.087830,271.597412 219.768997,273.031250 
	C219.610748,273.742950 218.537857,274.719330 217.881454,274.717255 
	C217.256775,274.715302 216.274429,273.684357 216.093369,272.947571 
	C215.783417,271.686310 215.959885,270.301575 215.959763,268.968689 
	C215.956421,233.303238 215.863297,197.637268 216.067764,161.972992 
	C216.095047,157.214828 214.939209,153.688705 211.316116,150.652863 
	C208.951065,148.671127 207.036560,146.151703 204.633530,143.564423 
	C197.950104,150.071365 194.757385,158.053589 192.448853,166.338272 
	C188.700714,179.789337 189.042892,193.454086 190.457520,207.281693 
	C192.767639,229.862579 198.316360,252.140564 196.990952,275.073975 
	C196.812698,278.158539 196.712128,281.109161 191.881348,281.656616 
	C192.268631,277.548828 193.216476,273.770752 192.867508,270.116516 
	C191.308701,253.793549 189.613846,237.475861 187.525635,221.213104 
	C184.894211,200.719818 182.196289,180.267563 188.929016,160.048965 
	C190.110718,156.500320 192.157135,153.239624 193.804214,149.845963 
	C193.491608,149.423752 193.179016,149.001541 192.866409,148.579330 
	C186.697067,152.749512 180.158600,156.475555 174.459808,161.211929 
	C168.491409,166.172409 162.647385,171.590012 158.009094,177.755737 
	C153.485168,183.769455 149.782059,190.692932 147.145493,197.750107 
	C144.623978,204.499329 143.938675,211.934570 142.446289,219.068298 
	C141.757385,218.982590 141.068481,218.896881 140.379578,218.811172 
	C140.379578,214.352158 139.675156,209.758835 140.495453,205.456207 
	C145.322449,180.137558 160.203903,162.346329 182.765350,150.658066 
	C214.119858,134.414429 245.934464,119.145958 279.477905,107.896400 
	C295.991119,102.358315 312.639648,96.277603 330.375916,97.148026 
	C346.962067,97.962013 359.106873,106.695770 366.586578,121.567368 
	C367.585785,123.554024 367.644196,126.013878 368.138275,128.254593 
	C367.594330,128.467773 367.050415,128.680939 366.506470,128.894104 
	C365.651001,127.669449 364.570831,126.544830 363.974213,125.204903 
	C356.622253,108.693001 338.054871,98.740746 320.015442,102.276054 
	C310.492645,104.142303 301.154297,106.949738 291.720337,110.025833 
	C306.882660,112.212135 313.599579,122.704338 316.742462,135.481247 
	C323.598877,163.354843 321.028442,190.640289 308.569885,216.628372 
	C304.785675,224.522095 299.729797,231.806168 294.997620,239.738770 
	C294.824219,240.069901 294.909485,240.031708 294.994781,239.993530 
z"/>
<path fill="#F2F1F2" opacity="1.000000" stroke="none" 
	d="
M250.034851,324.000000 
	C250.035416,315.179840 249.870071,306.853485 250.179840,298.544861 
	C250.240021,296.930359 251.824066,294.454620 253.258301,293.950836 
	C268.258362,288.682434 283.370300,283.732269 298.456512,278.709717 
	C299.058838,278.509216 299.713531,278.465942 301.574707,278.121704 
	C301.696228,286.393524 302.363983,294.327026 301.791870,302.170044 
	C301.034668,312.550232 299.672607,322.923187 297.886963,333.180267 
	C296.322113,342.169128 294.051910,351.132965 287.815216,358.299622 
	C281.222656,365.875153 272.648834,369.056580 262.833557,367.690308 
	C255.564621,366.678467 250.269562,358.246765 250.072540,348.461365 
	C249.911774,340.477234 250.036591,332.487335 250.034851,324.000000 
z"/>
<path fill="#EFECF1" opacity="1.000000" stroke="none" 
	d="
M287.028290,370.038513 
	C296.481750,366.131287 306.470001,363.160248 315.280487,358.127441 
	C335.393982,346.638153 350.332123,330.164978 357.459351,307.726410 
	C359.376892,301.689331 359.281921,295.006409 360.035858,288.611145 
	C360.210236,287.131836 359.735016,285.501251 360.188629,284.152039 
	C360.585724,282.970917 361.867554,282.087219 362.758575,281.072144 
	C363.486969,282.132965 364.933838,283.270813 364.829712,284.242462 
	C364.019684,291.800415 363.538147,299.476501 361.777252,306.834198 
	C356.420197,329.218292 342.091522,345.139069 323.801300,358.137268 
	C311.995422,366.527252 299.600372,373.683990 285.015045,375.319244 
	C275.220764,376.417358 265.097748,378.090393 255.633484,373.249054 
	C245.886002,368.262878 242.464844,359.315216 242.175323,349.286957 
	C241.709305,333.144440 242.059586,316.978607 242.036072,300.822723 
	C242.032425,298.312408 242.250549,295.605133 245.491028,296.234314 
	C246.577377,296.445221 247.823532,299.330902 247.841400,301.006317 
	C248.020737,317.826630 247.894684,334.649872 247.991592,351.471527 
	C248.043640,360.506927 254.090912,368.237396 262.351379,370.236511 
	C270.380615,372.179626 284.980408,366.510681 290.136169,359.889832 
	C296.853912,351.263092 299.332947,341.055603 300.700623,330.707214 
	C302.414032,317.742584 303.143463,304.638245 303.987488,291.574188 
	C304.241119,287.649139 303.319397,283.660095 303.238922,279.694244 
	C303.214935,278.513428 304.220917,277.311707 304.754944,276.119568 
	C305.607635,276.934357 306.947235,277.612610 307.221130,278.589630 
	C308.022034,281.446777 308.792755,284.411652 308.877472,287.354401 
	C309.492706,308.721100 308.815765,330.041260 299.940125,349.929565 
	C296.827301,356.904694 291.546936,362.912537 286.876251,369.677856 
	C286.236206,370.126953 285.976257,370.260193 285.716309,370.393433 
	C286.153625,370.275146 286.590973,370.156830 287.028290,370.038513 
z"/>
<path fill="#F1F0F2" opacity="1.000000" stroke="none" 
	d="
M193.030029,187.070663 
	C193.458817,174.691803 196.080612,163.431442 202.446762,152.881149 
	C207.588470,156.162643 210.238098,159.676880 210.178574,165.972000 
	C209.846649,201.084839 210.020187,236.202469 210.015991,271.318451 
	C210.015182,278.137238 208.022827,279.664276 201.470688,278.570160 
	C200.041962,263.277313 198.622162,248.167435 197.220810,233.055862 
	C195.814194,217.887558 194.425964,202.717545 193.030029,187.070663 
z"/>
<path fill="#F0EDF1" opacity="1.000000" stroke="none" 
	d="
M315.012177,322.963562 
	C319.873077,330.309967 323.374695,331.730255 329.310638,328.671356 
	C329.927551,328.353424 330.322754,327.605194 331.087433,326.763000 
	C319.961853,327.745850 318.298859,326.807861 318.932892,319.039307 
	C320.274353,320.593567 321.772797,322.329773 323.891357,324.359009 
	C327.063873,323.301178 330.422424,322.563385 332.008484,320.477661 
	C335.854095,315.420471 335.388428,309.287659 334.338715,303.312531 
	C333.999207,305.246033 334.208801,307.227722 333.962341,309.150970 
	C332.975891,316.848633 330.350708,323.200775 324.003174,322.992279 
	C321.252014,320.191711 321.620819,317.199249 322.916656,314.332184 
	C324.023621,316.258850 325.088562,318.112366 326.153503,319.965851 
	C327.792603,318.086334 330.121704,316.468109 330.949829,314.281464 
	C334.302368,305.428711 331.822998,301.285492 322.722809,298.768219 
	C321.552399,298.444458 320.085388,296.216125 320.148499,294.938934 
	C320.387421,290.106384 325.778046,286.107239 330.474182,287.464661 
	C333.789795,288.422943 334.934692,287.413422 335.804840,284.476074 
	C336.355560,282.617065 337.506989,280.911774 338.526642,279.220581 
	C341.188690,274.805267 343.926483,270.435669 346.907227,265.605164 
	C351.752014,266.277893 352.497833,267.355988 354.715576,278.772064 
	C357.670868,276.843933 360.416382,274.841187 363.354706,273.179504 
	C369.526581,269.689209 377.411713,272.331726 379.197662,278.865997 
	C379.763580,280.936493 378.548889,283.882080 377.289551,285.887451 
	C376.721069,286.792633 373.169617,287.144470 372.516602,286.397156 
	C371.225494,284.919678 370.263550,282.402954 370.518311,280.496765 
	C370.932861,277.394897 369.108612,276.311554 367.301483,277.116150 
	C363.373474,278.865021 358.366455,280.630493 356.451355,283.928467 
	C352.966431,289.929840 351.332458,297.025543 349.098755,303.722168 
	C348.426666,305.737091 348.326477,307.942719 347.680542,310.197906 
	C347.144897,308.034424 346.962891,305.723846 346.628510,303.435547 
	C345.458374,295.428528 345.428528,287.620544 349.133118,280.065247 
	C349.946747,278.405914 349.252197,276.007141 349.252197,273.086273 
	C347.660828,276.528564 346.213806,278.786224 345.567261,281.253632 
	C344.492371,285.355469 343.266724,289.598480 343.307892,293.770172 
	C343.371338,300.195923 344.451752,306.611603 345.100769,313.031555 
	C344.365143,325.094696 339.538513,332.981964 330.401642,335.098846 
	C326.107666,336.093750 321.362671,335.142242 316.410583,335.036560 
	C315.999115,335.000397 316.011047,335.007385 316.011047,335.007385 
	C313.495850,331.762299 310.307373,328.804626 311.288666,323.526794 
	C311.930603,324.767731 312.352264,325.582794 313.029572,327.011108 
	C317.908234,335.371429 327.127319,336.433228 334.231995,329.901733 
	C334.721588,329.596069 334.910522,329.338715 335.234192,328.911774 
	C335.725464,328.604645 335.913818,328.344452 336.237610,327.917053 
	C336.727325,327.612000 336.918579,327.354584 337.335388,326.868652 
	C342.451080,320.909973 342.514893,314.198883 341.836884,308.350464 
	C340.366089,313.958954 338.660767,320.461639 336.735291,327.071594 
	C336.239075,327.380951 336.058472,327.647705 335.750793,328.082916 
	C335.247803,328.385010 335.064606,328.650391 334.755859,329.085388 
	C334.249878,329.382599 334.067078,329.646790 333.588470,329.979797 
	C331.961212,330.397583 330.720581,330.789917 329.500885,331.239105 
	C323.403503,333.484558 319.068237,332.223236 314.969604,326.991608 
	C314.682556,325.901184 314.395538,324.810730 314.313538,323.359009 
	C314.518585,322.997711 315.012177,322.963562 315.012177,322.963562 
M333.544922,324.722260 
	C333.716034,324.164246 333.887177,323.606201 334.350708,322.918518 
	C334.220001,322.928986 334.089325,322.939423 333.465637,323.280487 
	C333.282623,323.830170 333.099609,324.379852 332.626221,325.070435 
	C332.769684,325.069641 332.913147,325.068817 333.544922,324.722260 
M337.702942,316.481598 
	C337.798676,314.382141 337.894409,312.282684 337.990143,310.183228 
	C336.941437,312.375641 336.484772,314.569824 336.102509,316.776855 
	C336.094757,316.821442 336.954041,317.016174 337.702942,316.481598 
M335.389221,320.480957 
	C335.389221,320.480957 335.545380,320.577820 335.545380,320.577820 
	C335.545380,320.577820 335.527985,320.383667 335.389221,320.480957 
z"/>
<path fill="#F1F0F2" opacity="1.000000" stroke="none" 
	d="
M349.176483,214.159515 
	C352.037323,209.538712 355.234924,207.570618 360.834137,208.796158 
	C370.832214,210.984482 381.045929,212.173889 391.130157,213.998383 
	C392.498688,214.245987 393.640289,215.747879 394.886963,216.669006 
	C393.801880,217.835052 392.935364,219.540283 391.597412,220.082626 
	C379.904266,224.822479 368.128448,229.358444 356.370056,233.936737 
	C355.757935,234.175079 355.001831,234.107010 354.447083,234.419815 
	C345.145447,239.664566 335.399567,238.923370 325.516052,236.676041 
	C323.747559,236.273926 321.930634,236.084961 320.503906,235.856491 
	C329.819946,228.817261 339.362823,221.606628 349.176483,214.159515 
z"/>
<path fill="#F1F0F2" opacity="1.000000" stroke="none" 
	d="
M160.235672,339.926514 
	C159.063293,339.340393 158.245834,338.855103 156.759521,337.972778 
	C160.768021,336.570862 164.205505,335.612274 167.440277,334.192047 
	C177.478119,329.784851 186.235565,323.184296 190.544769,313.190613 
	C194.584335,303.822266 201.674316,304.557800 209.091446,304.014648 
	C212.470871,327.035553 200.961914,348.396362 174.858200,344.101379 
	C170.010132,343.303741 165.341843,341.413422 160.235672,339.926514 
z"/>
<path fill="#F0EDF1" opacity="1.000000" stroke="none" 
	d="
M135.420593,281.657898 
	C132.077332,278.196503 129.216400,274.667847 125.704918,271.993286 
	C122.690010,269.696930 123.036453,267.927032 125.016876,265.478455 
	C129.197723,260.309448 134.572189,257.359528 142.133072,256.644196 
	C141.865677,253.192612 141.711273,249.824432 141.316635,246.484650 
	C140.905731,243.007172 140.536377,239.638412 143.792801,237.074280 
	C148.756287,242.989624 149.514084,272.160858 144.497406,278.361023 
	C143.897888,276.489838 143.234146,275.129547 143.062271,273.709686 
	C142.823990,271.741089 143.568542,269.428192 142.776932,267.807434 
	C141.728577,265.660980 139.546524,262.489746 137.952682,262.547455 
	C135.376770,262.640747 132.810135,264.902771 130.457748,266.558807 
	C130.197372,266.742096 131.152359,269.084259 131.895676,270.188171 
	C135.722580,275.871490 139.835571,281.371582 143.434128,287.191956 
	C144.237076,288.490631 143.938995,292.122406 143.180603,292.451599 
	C139.663712,293.978058 140.016006,290.381073 139.052933,288.561829 
	C137.892685,286.370178 136.763351,284.162140 135.420593,281.657898 
z"/>
<path fill="#F0EDF1" opacity="1.000000" stroke="none" 
	d="
M160.406799,331.667542 
	C154.965378,332.523895 149.909668,333.706421 144.826920,333.837036 
	C139.285583,333.979431 138.834290,332.574188 139.723541,327.186127 
	C140.825165,320.511200 141.353821,313.739197 142.040680,307.000031 
	C142.219940,305.241150 142.067657,303.448425 142.067657,301.638977 
	C145.788818,301.400879 147.296967,302.702240 146.996124,305.956360 
	C146.432587,312.052124 145.936844,318.154144 145.408539,324.253204 
	C145.297150,325.539337 145.167007,326.823853 144.986389,328.734222 
	C155.389420,329.040741 164.370819,326.464630 171.772751,319.648926 
	C175.412430,316.297546 178.282379,312.123810 181.752945,308.568481 
	C183.091614,307.197113 185.129578,306.508331 187.348541,306.244934 
	C182.264282,318.864563 172.925232,326.698517 160.406799,331.667542 
z"/>
<path fill="#DCBDEC" opacity="1.000000" stroke="none" 
	d="
M345.447693,313.012726 
	C344.451752,306.611603 343.371338,300.195923 343.307892,293.770172 
	C343.266724,289.598480 344.492371,285.355469 345.567261,281.253632 
	C346.213806,278.786224 347.660828,276.528564 349.252197,273.086273 
	C349.252197,276.007141 349.946747,278.405914 349.133118,280.065247 
	C345.428528,287.620544 345.458374,295.428528 346.628510,303.435547 
	C346.962891,305.723846 347.144897,308.034424 347.674713,310.606323 
	C347.233307,311.583221 346.513947,312.288544 345.447693,313.012726 
z"/>
<path fill="#EFECF1" opacity="1.000000" stroke="none" 
	d="
M315.995178,334.994629 
	C317.713440,339.164795 321.319092,339.065674 324.905731,338.815002 
	C326.663300,338.692169 328.398987,338.256744 330.572296,337.981384 
	C331.000000,338.000000 331.007080,338.005310 331.007080,338.005310 
	C325.508728,345.562622 317.932495,347.320312 312.185944,342.335876 
	C311.780701,341.984344 311.632996,341.335907 311.622833,341.316528 
	C315.921753,341.925842 320.315460,342.548553 324.709167,343.171295 
	C324.878906,342.488403 325.048615,341.805542 325.218353,341.122650 
	C319.707733,341.048218 313.914307,341.493164 312.026672,334.357971 
	C311.999512,334.000488 311.989685,334.010864 311.989685,334.010864 
	C313.095276,334.363617 314.200836,334.716370 315.658752,335.038269 
	C316.011047,335.007385 315.999115,335.000397 315.995178,334.994629 
z"/>
<path fill="#EFECF1" opacity="1.000000" stroke="none" 
	d="
M250.772720,264.572632 
	C251.540314,263.209534 252.445343,261.353638 253.702240,261.072876 
	C260.560150,259.540955 267.504608,258.396545 274.419281,257.118866 
	C274.555542,257.730103 274.691772,258.341339 274.828003,258.952545 
	C266.909515,260.903992 258.991058,262.855469 250.772720,264.572632 
z"/>
<path fill="#EFECF1" opacity="1.000000" stroke="none" 
	d="
M356.343140,265.654633 
	C355.252319,263.612885 354.331909,261.891571 353.411499,260.170288 
	C353.606049,259.757416 353.800629,259.344543 353.995178,258.931671 
	C355.343201,259.671570 357.065979,260.112549 357.950806,261.221893 
	C359.256561,262.858948 360.142365,264.908752 360.855835,266.908051 
	C361.218445,267.924194 360.813385,269.214294 360.755341,270.380524 
	C359.779419,269.796967 358.653168,269.363708 357.873688,268.583771 
	C357.212341,267.922058 356.951538,266.860016 356.343140,265.654633 
z"/>
<path fill="#DCBDEC" opacity="1.000000" stroke="none" 
	d="
M324.000092,323.295319 
	C330.350708,323.200775 332.975891,316.848633 333.962341,309.150970 
	C334.208801,307.227722 333.999207,305.246033 334.338715,303.312531 
	C335.388428,309.287659 335.854095,315.420471 332.008484,320.477661 
	C330.422424,322.563385 327.063873,323.301178 324.251678,324.428223 
	C323.993561,324.002411 323.995270,323.800385 324.000092,323.295319 
z"/>
<path fill="#DCBDEC" opacity="1.000000" stroke="none" 
	d="
M314.648926,326.993713 
	C319.068237,332.223236 323.403503,333.484558 329.500885,331.239105 
	C330.720581,330.789917 331.961212,330.397583 333.595520,329.988770 
	C333.998840,329.998535 334.015839,330.012054 334.015839,330.012054 
	C327.127319,336.433228 317.908234,335.371429 313.165771,327.303284 
	C313.473633,326.986694 313.900970,326.991272 314.648926,326.993713 
z"/>
<path fill="#EFECF1" opacity="1.000000" stroke="none" 
	d="
M310.515900,346.883179 
	C309.921448,346.099121 309.585602,345.559418 309.405273,345.269684 
	C313.938324,345.915039 318.520233,346.567352 323.200928,347.233734 
	C319.207703,349.987305 315.043152,349.735718 310.515900,346.883179 
z"/>
<path fill="#EFECF1" opacity="1.000000" stroke="none" 
	d="
M308.007538,349.990204 
	C311.433655,350.541840 314.859741,351.093475 318.285858,351.645111 
	C314.755676,352.465271 311.076324,354.880127 308.039612,350.391968 
	C307.999634,350.000336 308.007538,349.990204 308.007538,349.990204 
z"/>
<path fill="#EFECF1" opacity="1.000000" stroke="none" 
	d="
M305.368652,357.096222 
	C304.458282,356.283783 303.884979,355.627930 302.908966,354.511383 
	C306.727600,355.269867 309.849060,355.889893 312.970551,356.509888 
	C313.005310,356.884369 313.040070,357.258850 313.074829,357.633331 
	C310.618439,357.506500 308.162079,357.379639 305.368652,357.096222 
z"/>
<path fill="#EFECF1" opacity="1.000000" stroke="none" 
	d="
M332.019745,337.014465 
	C332.338196,336.781830 332.656677,336.549225 332.975159,336.316620 
	C333.050262,336.430542 333.125336,336.544464 333.200409,336.658417 
	C332.942810,336.756165 332.685242,336.853882 332.213928,336.975555 
	C332.000214,336.999481 332.019745,337.014465 332.019745,337.014465 
z"/>
<path fill="#EFECF1" opacity="1.000000" stroke="none" 
	d="
M312.004944,333.996765 
	C311.697449,333.523346 311.384460,333.053680 311.035736,332.292023 
	C311.000000,332.000031 310.990021,332.014771 310.990021,332.014771 
	C311.305450,332.484863 311.620850,332.954956 311.962952,333.717957 
	C311.989685,334.010864 311.999512,334.000488 312.004944,333.996765 
z"/>
<path fill="#DCBDEC" opacity="1.000000" stroke="none" 
	d="
M314.991302,322.719391 
	C315.012177,322.963562 314.518585,322.997711 314.272522,323.021088 
	C314.169556,322.609924 314.312653,322.175354 314.455780,321.740814 
	C314.627319,321.985626 314.798889,322.230408 314.991302,322.719391 
z"/>
<path fill="#EFECF1" opacity="1.000000" stroke="none" 
	d="
M315.466431,355.465881 
	C315.513458,355.441010 315.419403,355.490784 315.466431,355.465881 
z"/>
<path fill="#EFECF1" opacity="1.000000" stroke="none" 
	d="
M302.471741,352.527405 
	C302.454834,352.492340 302.488617,352.562469 302.471741,352.527405 
z"/>
<path fill="#EFECF1" opacity="1.000000" stroke="none" 
	d="
M320.458252,350.450897 
	C320.516357,350.417480 320.400116,350.484314 320.458252,350.450897 
z"/>
<path fill="#EFECF1" opacity="1.000000" stroke="none" 
	d="
M306.986053,349.018768 
	C307.313171,349.107239 307.579193,349.286438 307.895813,349.773254 
	C308.007538,349.990204 307.999634,350.000336 307.993958,350.004730 
	C307.651398,349.925049 307.391113,349.735687 307.104004,349.220581 
	C307.000580,349.000122 306.986053,349.018768 306.986053,349.018768 
z"/>
<path fill="#EFECF1" opacity="1.000000" stroke="none" 
	d="
M307.009888,348.992798 
	C306.901062,348.860504 306.782959,348.735535 306.664856,348.610565 
	C306.740326,348.659607 306.815796,348.708649 306.938660,348.888245 
	C306.986053,349.018768 307.000580,349.000122 307.009888,348.992798 
z"/>
<path fill="#EFECF1" opacity="1.000000" stroke="none" 
	d="
M305.487732,346.483551 
	C305.517303,346.469269 305.458160,346.497833 305.487732,346.483551 
z"/>
<path fill="#EFECF1" opacity="1.000000" stroke="none" 
	d="
M311.007263,331.994904 
	C311.014557,331.989777 310.598541,331.764801 310.598541,331.764801 
	C310.598541,331.764801 310.879608,331.792328 310.934814,331.903564 
	C310.990021,332.014771 311.000000,332.000031 311.007263,331.994904 
z"/>
<path fill="#EFECF1" opacity="1.000000" stroke="none" 
	d="
M331.992676,336.989746 
	C331.913940,337.320190 331.737061,337.591461 331.230774,337.899536 
	C331.007080,338.005310 331.000000,338.000000 330.996948,337.996216 
	C331.072357,337.650330 331.261292,337.387573 331.790161,337.109314 
	C332.019745,337.014465 332.000214,336.999481 331.992676,336.989746 
z"/>
<path fill="#EFECF1" opacity="1.000000" stroke="none" 
	d="
M310.475250,338.471313 
	C310.518768,338.446655 310.431732,338.495972 310.475250,338.471313 
z"/>
<path fill="#D6AFEB" opacity="1.000000" stroke="none" 
	d="
M226.980377,426.963684 
	C222.351044,418.334564 219.282227,409.716278 221.016434,400.083038 
	C221.337067,398.301971 221.876312,396.511414 222.622879,394.864960 
	C224.932495,389.771576 229.890854,387.070129 234.711487,388.102875 
	C239.239319,389.072906 242.683990,393.967896 243.109497,399.170380 
	C243.905304,408.900726 240.992950,417.588379 236.047623,425.705780 
	C234.739273,427.853333 232.714935,429.564697 230.642990,431.900665 
	C229.101929,429.870789 228.123932,428.582550 226.980377,426.963684 
z"/>
<path fill="#D6AFEB" opacity="1.000000" stroke="none" 
	d="
M92.539787,433.554077 
	C92.469597,433.600739 92.452415,433.409698 92.452415,433.409698 
	C92.452415,433.409698 92.609978,433.507385 92.539787,433.554077 
z"/>
<path fill="#EFECF1" opacity="1.000000" stroke="none" 
	d="
M192.988083,104.156158 
	C178.354065,99.281868 163.908707,93.700920 149.033646,89.729485 
	C133.770264,85.654373 118.104523,84.029900 102.277832,87.691460 
	C83.064102,92.136642 68.101982,111.944496 64.785782,129.707443 
	C64.610703,130.555832 64.623856,130.893097 64.637009,131.230377 
	C64.757385,130.819641 64.877769,130.408905 64.998154,129.998169 
	C70.542953,121.727043 77.481468,115.226486 87.624146,113.320755 
	C101.361954,110.739540 114.212349,114.749863 126.924446,119.233749 
	C127.623375,119.480278 127.902428,120.917198 128.376923,121.800018 
	C127.339218,121.935455 126.207016,122.410133 125.279022,122.151672 
	C118.894951,120.373543 112.640289,118.046089 106.182678,116.632019 
	C84.025368,111.780029 65.541206,125.123909 62.684772,147.743896 
	C62.260693,147.767563 61.836613,147.791245 61.412533,147.814911 
	C61.299377,142.574707 60.644516,137.279953 61.165756,132.103638 
	C63.571754,108.210236 83.266388,87.313103 106.979637,83.041634 
	C123.282135,80.105064 139.130264,82.979111 154.642715,87.512901 
	C167.054672,91.140526 179.241348,95.623260 191.335449,100.231773 
	C205.066742,105.464157 218.066452,103.346741 230.925781,97.551361 
	C232.674103,96.763435 234.375732,95.871895 236.098969,95.028336 
	C236.527100,95.459183 236.955231,95.890030 237.383362,96.320885 
	C233.239151,101.715889 229.482437,107.470207 224.876755,112.437317 
	C212.001816,126.322571 196.221848,135.303970 177.158737,136.649643 
	C170.076706,137.149567 162.708084,135.127762 155.624802,133.558105 
	C150.469498,132.415695 145.508911,130.271133 140.597275,128.244354 
	C139.453903,127.772545 138.861893,125.964592 138.007584,124.386559 
	C137.998978,124.001701 137.985962,124.006966 138.365356,124.029480 
	C140.294128,124.604187 141.894913,125.044167 143.384720,125.726479 
	C154.567047,130.847809 166.199463,133.820023 178.582428,132.935379 
	C180.075333,132.828735 181.494110,131.684174 183.385101,131.014160 
	C185.863541,131.009415 187.904114,131.011139 190.335709,130.994797 
	C206.487289,126.620689 218.494995,117.223137 227.575806,103.549126 
	C215.992737,107.866867 204.511902,107.534233 192.988083,104.156158 
z"/>
<path fill="#F0EDF1" opacity="1.000000" stroke="none" 
	d="
M189.944687,131.012878 
	C187.904114,131.011139 185.863541,131.009415 182.976532,131.020096 
	C180.510803,130.759003 178.837646,130.660797 177.281342,130.182404 
	C169.425110,127.767494 161.642410,125.104202 153.747787,122.826637 
	C148.437607,121.294693 142.931564,119.585068 137.985962,124.006966 
	C137.985962,124.006966 137.998978,124.001701 138.003250,123.995918 
	C136.562973,124.629524 134.712738,124.911674 133.764725,125.988281 
	C132.163330,127.806908 130.959122,129.989777 134.897903,131.099365 
	C136.130615,131.446640 137.704117,133.091141 137.811737,134.262238 
	C137.933960,135.591980 136.914978,137.765488 135.796143,138.282516 
	C134.412140,138.922089 132.075684,138.810150 130.742081,138.022141 
	C125.025703,134.644409 125.546989,126.011795 131.711426,122.260620 
	C134.374710,120.639984 137.440674,119.681091 140.690506,118.261360 
	C137.507080,114.229607 131.042908,111.206291 135.012268,105.231644 
	C143.182877,105.921272 150.709274,106.556519 158.353897,107.201752 
	C160.667404,100.734451 163.783829,98.193092 168.566055,99.143791 
	C171.316589,99.690605 173.007507,101.094620 171.406540,104.007866 
	C169.121918,108.165138 169.696716,111.792290 173.262543,114.700966 
	C177.173660,117.891319 181.557693,119.335144 186.966125,116.781311 
	C186.163574,115.158958 185.490982,113.799309 184.633270,112.065430 
	C188.570160,112.664047 189.245468,115.046005 188.528137,118.545998 
	C185.433411,119.461189 182.735184,119.965942 180.036972,120.470688 
	C180.133072,120.876854 180.229172,121.283020 180.325287,121.689186 
	C183.229965,120.809952 186.134644,119.930725 189.039307,119.051483 
	C189.875992,117.161545 190.712677,115.271614 192.087326,112.166504 
	C192.466339,114.720863 192.717606,116.414207 192.702850,118.711517 
	C191.579880,120.494064 190.722931,121.672646 189.424744,122.888107 
	C184.919479,122.924980 180.855453,122.924980 177.343826,122.924980 
	C181.275192,125.802231 186.058762,126.024536 190.436310,123.122833 
	C195.064331,124.154205 190.793640,125.715530 191.002518,127.001831 
	C191.000000,127.000000 191.004028,127.006432 190.543121,126.997574 
	C185.676849,126.988708 181.271515,126.988708 176.200775,126.988708 
	C181.447266,129.506104 186.185226,129.625366 191.047272,128.126373 
	C190.681976,129.320648 190.313324,130.166779 189.944687,131.012878 
M169.896103,122.752716 
	C169.820389,122.702866 169.744690,122.653008 169.668976,122.603157 
	C169.784409,122.731636 169.899857,122.860115 170.293686,123.538612 
	C170.954819,123.895416 171.615936,124.252213 172.277069,124.609016 
	C172.391342,124.310822 172.505615,124.012627 172.619873,123.714432 
	C171.742691,123.481438 170.865494,123.248444 169.896103,122.752716 
M161.096893,121.338272 
	C161.200958,121.377594 161.305008,121.416916 161.409073,121.456238 
	C161.295731,121.285019 161.182404,121.113808 160.969055,120.256325 
	C156.171722,113.517265 148.311218,110.494240 142.814667,113.063721 
	C148.756393,115.684196 154.853058,118.373009 161.096893,121.338272 
M164.402634,124.167679 
	C164.775970,124.174782 165.149307,124.181885 165.522644,124.188995 
	C165.521866,124.034264 165.533234,123.745705 165.518570,123.744362 
	C165.144211,123.710442 164.767136,123.706543 164.402634,124.167679 
M140.532333,111.400497 
	C140.532333,111.400497 140.607376,111.516342 140.532333,111.400497 
M172.407852,120.476578 
	C172.407852,120.476578 172.531464,120.405319 172.407852,120.476578 
M174.481232,121.616806 
	C174.481232,121.616806 174.580444,121.452675 174.580444,121.452675 
	C174.580444,121.452675 174.380997,121.472786 174.481232,121.616806 
M174.624252,125.521584 
	C174.624252,125.521584 174.449860,125.426003 174.449860,125.426003 
	C174.449860,125.426003 174.476761,125.612419 174.624252,125.521584 
z"/>
<path fill="#D8B4EB" opacity="1.000000" stroke="none" 
	d="
M190.335709,130.994812 
	C190.313324,130.166779 190.681976,129.320648 191.035416,127.934784 
	C191.020218,127.395035 191.004028,127.006432 191.004028,127.006432 
	C191.004028,127.006432 191.000000,127.000000 191.222443,127.002747 
	C191.444885,127.005501 191.884766,126.996529 192.092499,127.266693 
	C193.625595,127.024155 194.950928,126.511452 196.424591,125.908676 
	C196.758194,125.672165 196.900223,125.491661 197.225220,125.057945 
	C197.658508,124.272972 197.865555,123.707169 198.419281,123.046913 
	C200.112961,120.376518 201.459915,117.800560 202.806885,115.224609 
	C202.970093,115.247299 203.133301,115.269989 203.296524,115.292679 
	C202.865372,117.862564 202.434204,120.432449 201.862427,123.052475 
	C201.813705,123.067383 201.905624,123.032143 202.364471,122.929169 
	C206.306503,118.376076 205.552795,112.396118 200.941925,108.885902 
	C200.822876,108.702896 200.748474,108.651764 200.674057,108.600632 
	C200.788483,108.729469 200.902908,108.858307 201.019928,109.319084 
	C201.024841,110.093559 201.027161,110.536087 201.013550,110.990814 
	C200.997650,111.003014 200.968704,111.030983 200.691422,110.897995 
	C199.306793,110.498398 198.199463,110.231773 196.782791,109.986008 
	C196.267487,110.023941 196.061493,110.041023 195.565369,109.914062 
	C194.459381,109.504997 193.643555,109.239983 192.827713,108.974968 
	C191.665283,108.513603 190.502838,108.052231 189.343292,107.592010 
	C190.746231,106.514717 191.862442,105.657608 192.983368,104.478333 
	C204.511902,107.534233 215.992737,107.866867 227.575806,103.549126 
	C218.494995,117.223137 206.487289,126.620689 190.335709,130.994812 
z"/>
<path fill="#DCBDEC" opacity="1.000000" stroke="none" 
	d="
M196.998962,125.277107 
	C196.900223,125.491661 196.758194,125.672165 196.034698,125.888046 
	C194.292572,126.303833 193.088669,126.650177 191.884766,126.996529 
	C191.884766,126.996529 191.444885,127.005501 191.224960,127.004578 
	C190.793640,125.715530 195.064331,124.154205 190.377380,123.052368 
	C189.986725,122.989693 189.865982,122.851227 189.865982,122.851227 
	C190.722931,121.672646 191.579880,120.494064 192.685043,119.115570 
	C193.087204,119.640961 193.241135,120.366264 193.395050,121.091576 
	C193.756653,120.827187 194.118240,120.562798 194.920364,120.383514 
	C198.494965,118.249466 198.718674,117.104843 197.232849,111.872673 
	C197.710175,111.554131 197.898911,111.294991 198.279968,111.231750 
	C200.583969,115.113075 200.221359,118.622231 197.740417,122.264328 
	C197.313370,123.419846 197.156158,124.348480 196.998962,125.277107 
z"/>
<path fill="#F0EDF1" opacity="1.000000" stroke="none" 
	d="
M197.018784,111.986359 
	C198.718674,117.104843 198.494965,118.249466 195.138306,120.225906 
	C195.252213,117.626915 195.588715,115.270630 195.958405,112.461288 
	C195.991562,112.008232 196.065628,111.933296 196.303650,111.942398 
	C196.541672,111.951500 197.018784,111.986359 197.018784,111.986359 
z"/>
<path fill="#F0EDF1" opacity="1.000000" stroke="none" 
	d="
M192.997482,109.263947 
	C193.643555,109.239983 194.459381,109.504997 195.613708,110.225159 
	C195.989990,111.097977 196.027817,111.515640 196.065643,111.933296 
	C196.065628,111.933296 195.991562,112.008232 195.953247,112.046768 
	C194.999039,111.241180 194.083145,110.397049 192.997482,109.263947 
z"/>
<path fill="#D6AFEB" opacity="1.000000" stroke="none" 
	d="
M294.997375,239.996735 
	C294.909485,240.031708 294.824219,240.069901 294.872314,240.056244 
	C295.005737,240.004425 295.000000,239.999954 294.997375,239.996735 
z"/>
<path fill="#D6AFEB" opacity="1.000000" stroke="none" 
	d="
M287.012390,370.018250 
	C286.590973,370.156830 286.153625,370.275146 285.716309,370.393433 
	C285.976257,370.260193 286.236206,370.126953 286.728638,369.977112 
	C286.961090,369.960571 286.996521,369.997986 287.012390,370.018250 
z"/>
<path fill="#DCBDEC" opacity="1.000000" stroke="none" 
	d="
M336.955444,326.964355 
	C338.660767,320.461639 340.366089,313.958954 341.836884,308.350464 
	C342.514893,314.198883 342.451080,320.909973 337.317749,326.848633 
	C336.995178,326.998047 336.955444,326.964355 336.955444,326.964355 
z"/>
<path fill="#D6AFEB" opacity="1.000000" stroke="none" 
	d="
M337.555908,316.811218 
	C336.954041,317.016174 336.094757,316.821442 336.102509,316.776855 
	C336.484772,314.569824 336.941437,312.375641 337.990143,310.183228 
	C337.894409,312.282684 337.798676,314.382141 337.555908,316.811218 
z"/>
<path fill="#D6AFEB" opacity="1.000000" stroke="none" 
	d="
M334.058319,323.048187 
	C333.887177,323.606201 333.716034,324.164246 333.267334,324.858948 
	C332.989746,324.995605 332.916595,324.929535 332.916565,324.929535 
	C333.099609,324.379852 333.282623,323.830170 333.735748,323.141083 
	C334.005859,323.001678 334.058319,323.048187 334.058319,323.048187 
z"/>
<path fill="#D6AFEB" opacity="1.000000" stroke="none" 
	d="
M335.458618,320.432312 
	C335.527985,320.383667 335.545380,320.577820 335.545380,320.577820 
	C335.545380,320.577820 335.389221,320.480957 335.458618,320.432312 
z"/>
<path fill="#D6AFEB" opacity="1.000000" stroke="none" 
	d="
M333.982239,322.975769 
	C334.089325,322.939423 334.220001,322.928986 334.204529,322.983337 
	C334.058319,323.048187 334.005859,323.001678 333.982239,322.975769 
z"/>
<path fill="#D6AFEB" opacity="1.000000" stroke="none" 
	d="
M333.023193,325.031799 
	C332.913147,325.068817 332.769684,325.069641 332.771423,325.000000 
	C332.916595,324.929535 332.989746,324.995605 333.023193,325.031799 
z"/>
<path fill="#DCBDEC" opacity="1.000000" stroke="none" 
	d="
M335.973358,327.979065 
	C336.058472,327.647705 336.239075,327.380951 336.735291,327.071594 
	C336.955444,326.964355 336.995178,326.998047 337.012817,327.018066 
	C336.918579,327.354584 336.727325,327.612000 336.227478,327.904846 
	C335.998322,327.999268 335.973358,327.979065 335.973358,327.979065 
z"/>
<path fill="#DCBDEC" opacity="1.000000" stroke="none" 
	d="
M336.008453,328.011475 
	C335.913818,328.344452 335.725464,328.604645 335.226074,328.901733 
	C334.998688,328.999146 334.978638,328.982910 334.978638,328.982910 
	C335.064606,328.650391 335.247803,328.385010 335.750793,328.082916 
	C335.973358,327.979065 335.998322,327.999268 336.008453,328.011475 
z"/>
<path fill="#DCBDEC" opacity="1.000000" stroke="none" 
	d="
M333.991821,329.989532 
	C334.067078,329.646790 334.249878,329.382599 334.755859,329.085388 
	C334.978638,328.982910 334.998688,328.999146 335.006805,329.009216 
	C334.910522,329.338715 334.721588,329.596069 334.231995,329.901733 
	C334.015839,330.012054 333.998840,329.998535 333.991821,329.989532 
z"/>
<path fill="#D6B0EB" opacity="1.000000" stroke="none" 
	d="
M138.365356,124.029480 
	C142.931564,119.585068 148.437607,121.294693 153.747787,122.826637 
	C161.642410,125.104202 169.425110,127.767494 177.281342,130.182404 
	C178.837646,130.660797 180.510803,130.759003 182.538666,131.026581 
	C181.494110,131.684174 180.075333,132.828735 178.582428,132.935379 
	C166.199463,133.820023 154.567047,130.847809 143.384720,125.726479 
	C141.894913,125.044167 140.294128,124.604187 138.365356,124.029480 
z"/>
<path fill="#D6B0EB" opacity="1.000000" stroke="none" 
	d="
M64.999077,129.999084 
	C64.877769,130.408905 64.757385,130.819641 64.637009,131.230377 
	C64.623856,130.893097 64.610703,130.555832 64.799698,130.109924 
	C65.001839,130.001312 65.000000,130.000000 64.999077,129.999084 
z"/>
<path fill="#DCBDEC" opacity="1.000000" stroke="none" 
	d="
M160.949738,121.061829 
	C154.853058,118.373009 148.756393,115.684196 142.814667,113.063721 
	C148.311218,110.494240 156.171722,113.517265 160.987701,120.627739 
	C161.006348,120.999153 160.949738,121.061821 160.949738,121.061829 
z"/>
<path fill="#DCBDEC" opacity="1.000000" stroke="none" 
	d="
M190.543121,126.997574 
	C191.004028,127.006432 191.020218,127.395035 191.032074,127.586624 
	C186.185226,129.625366 181.447266,129.506104 176.200775,126.988708 
	C181.271515,126.988708 185.676849,126.988708 190.543121,126.997574 
z"/>
<path fill="#DCBDEC" opacity="1.000000" stroke="none" 
	d="
M190.045670,123.060150 
	C186.058762,126.024536 181.275192,125.802231 177.343826,122.924980 
	C180.855453,122.924980 184.919479,122.924980 189.424744,122.888107 
	C189.865982,122.851227 189.986725,122.989693 190.045670,123.060150 
z"/>
<path fill="#D6B0EB" opacity="1.000000" stroke="none" 
	d="
M189.013306,119.019867 
	C186.134644,119.930725 183.229965,120.809952 180.325287,121.689186 
	C180.229172,121.283020 180.133072,120.876854 180.036972,120.470688 
	C182.735184,119.965942 185.433411,119.461189 188.531906,118.942062 
	C188.932190,118.927689 188.987289,118.988251 189.013306,119.019867 
z"/>
<path fill="#DCBDEC" opacity="1.000000" stroke="none" 
	d="
M169.988312,123.015457 
	C170.865494,123.248444 171.742691,123.481438 172.619873,123.714432 
	C172.505615,124.012627 172.391342,124.310822 172.277069,124.609016 
	C171.615936,124.252213 170.954819,123.895416 170.146866,123.269409 
	C170.000046,123.000206 169.988312,123.015457 169.988312,123.015457 
z"/>
<path fill="#DCBDEC" opacity="1.000000" stroke="none" 
	d="
M164.396576,123.932541 
	C164.767136,123.706543 165.144211,123.710442 165.518570,123.744362 
	C165.533234,123.745705 165.521866,124.034264 165.522644,124.188995 
	C165.149307,124.181885 164.775970,124.174782 164.396576,123.932541 
z"/>
<path fill="#DCBDEC" opacity="1.000000" stroke="none" 
	d="
M140.569855,111.458420 
	C140.607376,111.516342 140.532333,111.400497 140.569855,111.458420 
z"/>
<path fill="#DCBDEC" opacity="1.000000" stroke="none" 
	d="
M172.469666,120.440948 
	C172.531464,120.405319 172.407852,120.476578 172.469666,120.440948 
z"/>
<path fill="#DCBDEC" opacity="1.000000" stroke="none" 
	d="
M161.037704,120.970871 
	C161.182404,121.113808 161.295731,121.285019 161.409073,121.456238 
	C161.305008,121.416916 161.200958,121.377594 161.023315,121.200043 
	C160.949738,121.061821 161.006348,120.999153 161.037704,120.970871 
z"/>
<path fill="#DCBDEC" opacity="1.000000" stroke="none" 
	d="
M174.431122,121.544800 
	C174.380997,121.472786 174.580444,121.452675 174.580444,121.452675 
	C174.580444,121.452675 174.481232,121.616806 174.431122,121.544800 
z"/>
<path fill="#DCBDEC" opacity="1.000000" stroke="none" 
	d="
M170.007660,122.994400 
	C169.899857,122.860115 169.784409,122.731636 169.668976,122.603157 
	C169.744690,122.653008 169.820389,122.702866 169.942200,122.884087 
	C169.988312,123.015457 170.000046,123.000206 170.007660,122.994400 
z"/>
<path fill="#DCBDEC" opacity="1.000000" stroke="none" 
	d="
M174.550507,125.567001 
	C174.476761,125.612419 174.449860,125.426003 174.449860,125.426003 
	C174.449860,125.426003 174.624252,125.521584 174.550507,125.567001 
z"/>
<path fill="#EFECF1" opacity="1.000000" stroke="none" 
	d="
M198.010269,122.037437 
	C200.221359,118.622231 200.583969,115.113075 198.179443,111.018417 
	C197.632904,110.284073 197.392914,110.087494 197.092117,109.965157 
	C198.199463,110.231773 199.306793,110.498398 200.704803,111.138222 
	C201.128510,111.781929 201.261551,112.052437 201.394592,112.322945 
	C201.272888,111.874840 201.151184,111.426727 201.029480,110.978622 
	C201.027161,110.536087 201.024841,110.093559 201.011261,109.325722 
	C201.000000,109.000420 200.986572,109.017776 200.986572,109.017776 
	C205.552795,112.396118 206.306503,118.376076 202.365692,122.930710 
	C202.000000,123.000000 202.003052,123.002335 202.003052,123.002335 
	C202.434204,120.432449 202.865372,117.862564 203.296524,115.292679 
	C203.133301,115.269989 202.970093,115.247299 202.806885,115.224609 
	C201.459915,117.800560 200.112961,120.376518 198.394897,122.770569 
	C198.019287,122.404930 198.014771,122.221184 198.010269,122.037437 
z"/>
<path fill="#F0EDF1" opacity="1.000000" stroke="none" 
	d="
M192.092499,127.266693 
	C193.088669,126.650177 194.292572,126.303833 195.886368,125.978111 
	C194.950928,126.511452 193.625595,127.024155 192.092499,127.266693 
z"/>
<path fill="#D6B0EB" opacity="1.000000" stroke="none" 
	d="
M196.782791,109.986008 
	C197.392914,110.087494 197.632904,110.284073 197.912628,110.768234 
	C197.898911,111.294991 197.710175,111.554131 197.232849,111.872673 
	C197.018784,111.986359 196.541672,111.951500 196.303650,111.942398 
	C196.027817,111.515640 195.989990,111.097977 195.903839,110.369217 
	C196.061493,110.041023 196.267487,110.023941 196.782791,109.986008 
z"/>
<path fill="#F0EDF1" opacity="1.000000" stroke="none" 
	d="
M197.740417,122.264328 
	C198.014771,122.221184 198.019287,122.404930 198.048187,122.865021 
	C197.865555,123.707169 197.658508,124.272972 197.225220,125.057945 
	C197.156158,124.348480 197.313370,123.419846 197.740417,122.264328 
z"/>
<path fill="#EFECF1" opacity="1.000000" stroke="none" 
	d="
M201.008667,108.993782 
	C200.902908,108.858307 200.788483,108.729469 200.674057,108.600632 
	C200.748474,108.651764 200.822876,108.702896 200.941925,108.885902 
	C200.986572,109.017776 201.000000,109.000420 201.008667,108.993782 
z"/>
<path fill="#EFECF1" opacity="1.000000" stroke="none" 
	d="
M201.998764,122.998459 
	C201.905624,123.032143 201.813705,123.067383 201.862427,123.052475 
	C202.003052,123.002335 202.000000,123.000000 201.998764,122.998459 
z"/>
<path fill="#D8B4EB" opacity="1.000000" stroke="none" 
	d="
M201.013565,110.990814 
	C201.151184,111.426727 201.272888,111.874840 201.394592,112.322945 
	C201.261551,112.052437 201.128510,111.781929 200.982086,111.271210 
	C200.968704,111.030983 200.997650,111.003014 201.013565,110.990814 
z"/>
</svg>